<svg width="172" height="46" viewBox="0 0 172 46" fill="none" xmlns="http://www.w3.org/2000/svg">
<path d="M6.29297 16.3164L6.25781 16.8789C6.25781 16.9961 6.28125 17.1367 6.32812 17.3008C6.39844 17.582 6.38672 17.9336 6.29297 18.3555C6.19922 18.7773 6.28125 19.4805 6.53906 20.4648L6.50391 21.2734L6.57422 21.6602C6.62109 21.8477 6.62109 22.0469 6.57422 22.2578C6.52734 22.4688 6.50391 22.7031 6.50391 22.9609C6.50391 23.2188 6.51562 23.4414 6.53906 23.6289C6.58594 23.793 6.59766 23.9219 6.57422 24.0156C6.55078 24.0859 6.53906 24.1562 6.53906 24.2266C6.5625 24.2734 6.60938 24.3086 6.67969 24.332C6.75 24.332 6.82031 24.3438 6.89062 24.3672C6.98438 24.3672 7.06641 24.3789 7.13672 24.4023C7.20703 24.4258 7.23047 24.4609 7.20703 24.5078C7.37109 24.5781 7.52344 24.5898 7.66406 24.543C7.80469 24.4727 7.93359 24.4492 8.05078 24.4727C8.19141 24.4727 8.30859 24.5078 8.40234 24.5781C8.51953 24.625 8.64844 24.6836 8.78906 24.7539C9.1875 24.8477 9.55078 24.8477 9.87891 24.7539C10.207 24.6602 10.5117 24.6367 10.793 24.6836C11.0977 24.7305 11.3438 24.7656 11.5312 24.7891C11.7188 24.7891 11.918 24.8008 12.1289 24.8242C12.3398 24.8477 12.4922 24.8594 12.5859 24.8594C12.6797 24.8359 12.8086 24.8359 12.9727 24.8594C13.1602 24.8828 13.2656 24.8828 13.2891 24.8594C13.4531 24.9062 13.6055 24.9648 13.7461 25.0352C13.8867 25.1055 14.0391 25.1406 14.2031 25.1406L15.082 25.0352C15.293 24.6836 15.4336 24.2852 15.5039 23.8398C15.5977 23.3711 15.6328 23.0195 15.6094 22.7852C15.5859 22.5508 15.5859 22.3516 15.6094 22.1875C15.6328 22 15.6562 21.8711 15.6797 21.8008C15.7031 21.707 15.7266 21.5781 15.75 21.4141C15.7734 21.25 15.7734 21.0625 15.75 20.8516C15.7266 20.6172 15.7266 20.3945 15.75 20.1836C15.7734 19.9727 15.7852 19.7734 15.7852 19.5859L15.9258 19.0586C15.9258 19.0117 15.9023 18.9414 15.8555 18.8477C15.832 18.7539 15.8438 18.6836 15.8906 18.6367C15.9375 18.3555 15.9492 18.168 15.9258 18.0742C15.9023 17.9805 15.8906 17.875 15.8906 17.7578L16.0664 17.3359C16.0664 17.2656 16.0547 17.207 16.0312 17.1602C16.0078 17.0898 16.0078 16.9609 16.0312 16.7734C16.0781 16.5625 16.0898 16.4219 16.0664 16.3516C16.043 16.2578 16.0312 16.1641 16.0312 16.0703L16.1367 15.6133C16.1602 15.3555 16.1719 15.0859 16.1719 14.8047C16.1953 14.5234 16.2305 14.2305 16.2773 13.9258V13.0469L16.3125 11.8516L16.4531 10.832V9.63672C16.4531 9.51953 16.4766 9.39062 16.5234 9.25C16.7109 8.57031 16.6875 8.23047 16.4531 8.23047C16.3594 8.23047 16.3242 8.17188 16.3477 8.05469C16.043 8.03125 15.8086 8.04297 15.6445 8.08984C15.5039 8.11328 15.2812 8.10156 14.9766 8.05469C14.7656 7.67969 14.7305 7.36328 14.8711 7.10547C15.0117 7.05859 15.1406 7.04688 15.2578 7.07031C15.3984 7.07031 15.5273 7.05859 15.6445 7.03516L16.3477 6.92969L16.8047 7.03516L17.2266 6.96484C17.4375 7.01172 17.625 7.02344 17.7891 7C17.9766 6.95312 18.1758 6.96484 18.3867 7.03516C18.6211 7.10547 18.8672 7.11719 19.125 7.07031C19.3828 7.02344 19.5586 7.03516 19.6523 7.10547C19.7695 7.17578 19.8867 7.22266 20.0039 7.24609C20.1445 7.24609 20.2734 7.22266 20.3906 7.17578C20.5078 7.12891 20.625 7.12891 20.7422 7.17578C20.9766 7.36328 21.1055 7.48047 21.1289 7.52734C21.1523 7.57422 21.1875 7.62109 21.2344 7.66797C21.1641 8.01953 20.9648 8.26562 20.6367 8.40625C20.2852 8.59375 20.0742 8.76953 20.0039 8.93359C19.9336 9.07422 19.8164 9.20312 19.6523 9.32031C19.6055 9.60156 19.5938 9.90625 19.6172 10.2344C19.6406 10.5391 19.6406 10.7852 19.6172 10.9727C19.6172 11.1367 19.5938 11.2656 19.5469 11.3594C19.5 11.4531 19.5352 11.5352 19.6523 11.6055C19.4883 11.7695 19.4297 12.0156 19.4766 12.3438C19.5234 12.6484 19.5469 12.9062 19.5469 13.1172L19.3359 15.0859C19.3125 15.2031 19.3125 15.2969 19.3359 15.3672C19.3828 15.4375 19.4062 15.5195 19.4062 15.6133L19.0898 17.0547L19.125 17.9336C19.125 18.1211 19.1016 18.3086 19.0547 18.4961C19.0078 18.6602 18.9727 18.8125 18.9492 18.9531C18.9258 19.0703 18.9258 19.1758 18.9492 19.2695C18.9727 19.3398 18.9727 19.4453 18.9492 19.5859C18.9492 19.7031 18.9141 19.8203 18.8438 19.9375C18.7969 20.0547 18.7617 20.1719 18.7383 20.2891L18.7031 21.8359C18.7031 21.9766 18.6445 22.1055 18.5273 22.2227C18.6445 22.293 18.668 22.3867 18.5977 22.5039C18.5508 22.6211 18.5273 22.7383 18.5273 22.8555C18.5273 22.9727 18.5391 23.0781 18.5625 23.1719C18.6094 23.2422 18.6211 23.3359 18.5977 23.4531C18.5742 23.5469 18.5273 23.7109 18.457 23.9453C18.3867 24.1797 18.3398 24.4258 18.3164 24.6836C18.3164 24.9414 18.2812 25.1758 18.2109 25.3867C18.1641 25.5742 18.1289 25.7617 18.1055 25.9492C18.082 26.1133 18.0703 26.2539 18.0703 26.3711C18.0938 26.4883 18.0938 26.6055 18.0703 26.7227C18.0703 26.8398 18.0586 26.9688 18.0352 27.1094C18.0117 27.2266 17.9766 27.4141 17.9297 27.6719C17.9062 27.9062 17.8945 28.082 17.8945 28.1992C17.918 28.3164 17.8945 28.5156 17.8242 28.7969C17.7773 29.0781 17.7539 29.3359 17.7539 29.5703C17.7773 29.8047 17.7188 30.0508 17.5781 30.3086C17.6484 30.9414 17.5898 31.3281 17.4023 31.4688C17.3555 31.8203 17.2969 32.1836 17.2266 32.5586C17.1562 32.9336 17.0977 33.3555 17.0508 33.8242C17.168 34.0352 17.332 34.1055 17.543 34.0352C17.7539 33.9648 17.9531 33.9531 18.1406 34C18.3516 34.0234 18.6211 34.1992 18.9492 34.5273C18.9258 34.6914 18.9258 34.832 18.9492 34.9492C18.9961 35.0664 18.9609 35.1836 18.8438 35.3008C18.75 35.418 18.6445 35.4531 18.5273 35.4062C18.4336 35.3828 18.2109 35.3711 17.8594 35.3711C17.5078 35.3711 17.1445 35.3359 16.7695 35.2656C16.418 35.1953 16.125 35.207 15.8906 35.3008C15.6797 35.3945 15.4805 35.4766 15.293 35.5469C15.0352 35.4531 14.7188 35.4297 14.3438 35.4766C13.9922 35.5469 13.6523 35.582 13.3242 35.582C12.9961 35.6055 12.7266 35.5586 12.5156 35.4414C12.3281 35.3242 12.293 35.0312 12.4102 34.5625C12.4805 34.5156 12.5742 34.4922 12.6914 34.4922C12.8086 34.4922 12.9258 34.4805 13.043 34.457C13.2305 34.3398 13.418 34.2461 13.6055 34.1758C13.8164 34.1055 14.0156 34.0234 14.2031 33.9297C14.2969 33.7188 14.3789 33.3438 14.4492 32.8047C14.5195 32.2656 14.6133 31.9023 14.7305 31.7148C14.6602 31.4102 14.6484 31.2461 14.6953 31.2227C14.7422 31.1758 14.7656 31.082 14.7656 30.9414C14.7891 30.8008 14.8008 30.5781 14.8008 30.2734C14.8242 29.9688 14.8477 29.7109 14.8711 29.5C14.918 29.2656 14.9531 29.0898 14.9766 28.9727C15.0234 28.8555 15.0586 28.75 15.082 28.6562C15.1055 28.5391 15.1055 28.4336 15.082 28.3398C15.082 28.2227 15.0938 27.9766 15.1172 27.6016C15.1406 27.2031 15.0586 26.8633 14.8711 26.582C14.5898 26.4883 14.1797 26.4414 13.6406 26.4414C13.1016 26.4414 12.7148 26.3477 12.4805 26.1602C12.0352 26.3008 11.625 26.3359 11.25 26.2656C10.875 26.1953 10.6523 26.1719 10.582 26.1953C10.5117 26.2188 10.4062 26.2305 10.2656 26.2305C10.1484 26.207 10.0078 26.1836 9.84375 26.1602C9.65625 26.1367 9.35156 26.207 8.92969 26.3711C8.4375 26.2539 8.01562 26.2422 7.66406 26.3359C7.64062 26.4062 7.52344 26.4766 7.3125 26.5469C7.125 26.5938 7.00781 26.6758 6.96094 26.793C6.9375 26.9102 6.94922 26.9922 6.99609 27.0391C7.06641 27.0859 7.11328 27.1914 7.13672 27.3555L7.03125 27.8828C7.03125 28.0938 7.05469 28.293 7.10156 28.4805C7.14844 28.6445 7.16016 28.8789 7.13672 29.1836L7.17188 29.7812C7.125 30.25 7.10156 30.5898 7.10156 30.8008C7.10156 31.0117 7.08984 31.2109 7.06641 31.3984C7.39453 31.6328 7.80469 31.6914 8.29688 31.5742C8.39062 31.5508 8.46094 31.5273 8.50781 31.5039C8.55469 31.457 8.625 31.4219 8.71875 31.3984C8.83594 31.3516 8.97656 31.3281 9.14062 31.3281C9.32812 31.3281 9.50391 31.3047 9.66797 31.2578C10.0195 31.5156 10.125 31.9258 9.98438 32.4883C9.84375 32.5352 9.71484 32.5938 9.59766 32.6641C9.48047 32.7109 9.33984 32.7461 9.17578 32.7695C9.03516 32.793 8.89453 32.793 8.75391 32.7695C8.63672 32.7461 8.48438 32.7578 8.29688 32.8047C8.13281 32.9219 8.00391 32.9805 7.91016 32.9805C7.65234 32.9805 7.42969 33.0508 7.24219 33.1914C7.07812 33.3086 6.94922 33.3672 6.85547 33.3672C6.71484 33.3438 6.55078 33.4023 6.36328 33.543C6.19922 33.6602 6.04688 33.7188 5.90625 33.7188L3.33984 34.2461C3.10547 34.2461 2.90625 34.1758 2.74219 34.0352C2.57812 33.918 2.53125 33.7305 2.60156 33.4727C2.67188 33.1914 2.76562 33.0508 2.88281 33.0508C3.02344 33.0508 3.16406 33.0156 3.30469 32.9453C3.44531 32.8516 3.62109 32.7578 3.83203 32.6641C4.06641 32.5703 4.26562 32.4297 4.42969 32.2422C4.45312 32.125 4.42969 31.9492 4.35938 31.7148C4.3125 31.4805 4.28906 30.9648 4.28906 30.168C4.33594 30.0508 4.32422 29.9805 4.25391 29.957C4.18359 29.9102 4.16016 29.8164 4.18359 29.6758C4.23047 29.5117 4.20703 29.3125 4.11328 29.0781C4.04297 28.8438 3.99609 28.6328 3.97266 28.4453C3.97266 28.2578 3.98438 28.1172 4.00781 28.0234C4.03125 27.9297 4.03125 27.8359 4.00781 27.7422C3.98438 27.625 3.9375 27.5078 3.86719 27.3906C3.82031 27.2734 3.78516 27.1211 3.76172 26.9336C3.73828 26.7461 3.73828 26.5352 3.76172 26.3008C3.80859 26.043 3.76172 25.8086 3.62109 25.5977C3.66797 25.4336 3.69141 25.2695 3.69141 25.1055C3.69141 24.9414 3.67969 24.7891 3.65625 24.6484L3.41016 22.0469L3.48047 21.5195C3.48047 21.3086 3.45703 21.0859 3.41016 20.8516C3.38672 20.6172 3.36328 20.3945 3.33984 20.1836C3.33984 19.9492 3.32812 19.7266 3.30469 19.5156C3.28125 19.3047 3.25781 19.1289 3.23438 18.9883C3.23438 18.8242 3.21094 18.6836 3.16406 18.5664C3.14062 18.4258 3.12891 18.3203 3.12891 18.25C3.15234 18.1562 3.16406 18.0273 3.16406 17.8633C3.1875 17.6992 3.15234 17.5 3.05859 17.2656C2.98828 17.0312 2.92969 16.7969 2.88281 16.5625C2.83594 16.3281 2.8125 16.0586 2.8125 15.7539C2.83594 15.4492 2.76562 15.2031 2.60156 15.0156C2.67188 14.8047 2.625 14.3945 2.46094 13.7852C2.32031 13.1523 2.29688 12.5664 2.39062 12.0273C2.34375 11.8867 2.33203 11.8047 2.35547 11.7812C2.40234 11.7344 2.42578 11.6875 2.42578 11.6406L2.25 11.1484C2.25 10.8438 2.21484 10.6562 2.14453 10.5859C2.09766 10.3984 2.0625 10.1992 2.03906 9.98828C2.03906 9.77734 2.00391 9.64844 1.93359 9.60156C1.67578 9.50781 1.54688 9.50781 1.54688 9.60156C1.57031 9.67188 1.53516 9.68359 1.44141 9.63672C1.25391 9.58984 1.10156 9.60156 0.984375 9.67188C0.867188 9.71875 0.691406 9.71875 0.457031 9.67188C0.363281 9.20312 0.398438 8.93359 0.5625 8.86328C0.75 8.79297 0.949219 8.75781 1.16016 8.75781H1.82812C2.03906 8.75781 2.20312 8.69922 2.32031 8.58203C2.4375 8.58203 2.56641 8.62891 2.70703 8.72266C2.80078 8.67578 2.91797 8.64062 3.05859 8.61719C3.19922 8.57031 3.375 8.51172 3.58594 8.44141C3.82031 8.34766 4.01953 8.28906 4.18359 8.26562C4.34766 8.24219 4.5 8.20703 4.64062 8.16016C4.80469 8.08984 4.93359 8.03125 5.02734 7.98438C5.12109 7.91406 5.30859 7.91406 5.58984 7.98438C5.75391 7.89063 5.84766 7.83203 5.87109 7.80859C5.89453 7.78516 6 7.76172 6.1875 7.73828C7.07812 7.64453 7.66406 7.77344 7.94531 8.125C7.92188 8.21875 7.91016 8.3125 7.91016 8.40625C7.91016 8.5 7.91016 8.59375 7.91016 8.6875C7.69922 8.85156 7.55859 8.93359 7.48828 8.93359C7.44141 8.93359 7.33594 8.98047 7.17188 9.07422C7.00781 9.14453 6.85547 9.15625 6.71484 9.10938C6.59766 9.13281 6.51562 9.19141 6.46875 9.28516C6.42188 9.37891 6.375 9.47266 6.32812 9.56641C6.23438 9.47266 6.11719 9.44922 5.97656 9.49609C5.83594 9.51953 5.74219 9.57813 5.69531 9.67188C5.67188 9.8125 5.63672 9.95312 5.58984 10.0938C5.54297 10.2109 5.54297 10.3867 5.58984 10.6211C5.66016 10.832 5.69531 10.9844 5.69531 11.0781C5.69531 11.1719 5.70703 11.2656 5.73047 11.3594L5.80078 11.8164C5.82422 11.9336 5.82422 12.0508 5.80078 12.168C5.77734 12.2852 5.76562 12.3906 5.76562 12.4844C5.76562 12.5547 5.80078 12.6953 5.87109 12.9062L5.97656 13.293C6.02344 13.5977 6.05859 13.8086 6.08203 13.9258C6.12891 14.043 6.15234 14.1836 6.15234 14.3477C6.15234 14.5117 6.21094 14.6641 6.32812 14.8047C6.23438 14.9219 6.21094 15.0625 6.25781 15.2266C6.30469 15.3672 6.32812 15.4961 6.32812 15.6133L6.29297 16.3164ZM32.4141 34.668L30.9023 34.5977C30.8086 34.5977 30.668 34.5156 30.4805 34.3516C30.293 34.1875 30.1641 34.1172 30.0938 34.1406L29.6367 33.4727C29.543 33.1914 29.4961 32.9219 29.4961 32.6641V31.9258C29.3789 31.8555 29.2852 31.75 29.2148 31.6094C28.7695 31.7031 28.4883 31.8086 28.3711 31.9258C28.2773 32.043 28.1953 32.125 28.125 32.1719C27.7734 32.1719 27.4453 32.3242 27.1406 32.6289C27.0234 32.5352 26.8945 32.5234 26.7539 32.5938C26.6133 32.6406 26.4609 32.6523 26.2969 32.6289C26.1562 32.6055 26.0508 32.582 25.9805 32.5586C25.9102 32.5117 25.8164 32.4648 25.6992 32.418C25.5586 32.4648 25.4297 32.4766 25.3125 32.4531C25.1953 32.4297 25.043 32.4297 24.8555 32.4531C24.7148 32.2891 24.3984 32.1133 23.9062 31.9258C23.5781 31.7148 23.2148 31.5625 22.8164 31.4688C22.3477 30.7656 21.9727 30.168 21.6914 29.6758C21.7617 29.4648 21.7734 29.2422 21.7266 29.0078C21.6562 28.6094 21.7383 28.2344 21.9727 27.8828C22.1367 27.4609 22.3477 27.1328 22.6055 26.8984C22.8867 26.6406 23.0859 26.4648 23.2031 26.3711C23.3203 26.2539 23.4492 26.1602 23.5898 26.0898C23.7305 25.9961 23.8594 25.8672 23.9766 25.7031C24.1172 25.5156 24.2812 25.3984 24.4688 25.3516C24.6797 25.3047 24.8672 25.2812 25.0312 25.2812C25.1953 25.2578 25.3828 25.2227 25.5938 25.1758C25.8047 25.1289 25.9453 25.0938 26.0156 25.0703C26.2734 24.9766 26.6719 25.0352 27.2109 25.2461C27.5156 25.1992 27.7852 25.1992 28.0195 25.2461C28.2773 25.2695 28.5703 25.2695 28.8984 25.2461C29.0859 25.1289 29.168 25 29.1445 24.8594C29.1445 24.7188 29.1445 24.5547 29.1445 24.3672C29.1445 24.1797 29.1328 24.0391 29.1094 23.9453L28.9688 23.4883C29.0156 22.8555 28.9805 22.3984 28.8633 22.1172C28.9102 21.9062 28.9219 21.7891 28.8984 21.7656C28.875 21.7422 28.8633 21.6953 28.8633 21.625C28.8633 21.5312 28.8516 21.4023 28.8281 21.2383C28.8047 21.0742 28.7695 20.8867 28.7227 20.6758C28.6992 20.4648 28.6523 20.1602 28.582 19.7617C28.5352 19.3398 28.4766 19.0234 28.4062 18.8125C28.3359 18.5781 28.2773 18.4023 28.2305 18.2852C28.207 18.168 28.1719 18.0508 28.125 17.9336C28.0781 17.8164 28.043 17.7109 28.0195 17.6172C28.0195 17.5 27.9727 17.3711 27.8789 17.2305C27.8086 17.0898 27.75 16.9844 27.7031 16.9141C27.6562 16.8203 27.5859 16.7383 27.4922 16.668C27.4453 16.5977 27.4102 16.5039 27.3867 16.3867C27.3867 16.2695 27.3516 16.1875 27.2812 16.1406C27.0234 16.0938 26.7656 16.0703 26.5078 16.0703C26.2734 16.0703 26.0977 16.1523 25.9805 16.3164C25.5352 16.3164 25.2188 16.375 25.0312 16.4922C24.9141 16.6562 24.8789 16.8203 24.9258 16.9844C24.9727 17.1484 24.9844 17.3008 24.9609 17.4414C24.9375 17.5586 24.9023 17.6641 24.8555 17.7578C24.832 17.8516 24.8086 17.9453 24.7852 18.0391C24.8555 18.2734 24.8789 18.4609 24.8555 18.6016C24.8555 18.7422 24.9141 18.9297 25.0312 19.1641C25.1719 19.3984 25.2773 19.5508 25.3477 19.6211C25.418 19.6914 25.5117 19.75 25.6289 19.7969C25.7695 19.8438 25.875 19.8672 25.9453 19.8672C26.0391 19.8672 26.168 19.9258 26.332 20.043C26.4961 20.1602 26.6016 20.4414 26.6484 20.8867C26.5078 21.1211 26.2383 21.2383 25.8398 21.2383C25.4414 21.2383 25.125 21.1562 24.8906 20.9922C24.7969 20.9922 24.7266 21.0156 24.6797 21.0625C24.6328 21.0859 24.5391 21.0859 24.3984 21.0625C24.2812 21.0156 24.1758 20.9453 24.082 20.8516C24.0117 20.7578 23.8828 20.7109 23.6953 20.7109C23.6484 20.5469 23.5664 20.418 23.4492 20.3242C23.3555 20.207 23.2617 20.0898 23.168 19.9727C23.0977 19.7383 23.0391 19.6211 22.9922 19.6211C22.9688 19.6211 22.957 19.6094 22.957 19.5859C22.6523 19.1406 22.5469 18.6836 22.6406 18.2148C22.6406 18.1211 22.6641 18.0273 22.7109 17.9336C22.7578 17.8164 22.8047 17.6992 22.8516 17.582C22.8984 17.4414 22.9219 17.3125 22.9219 17.1953C22.9219 17.0547 22.9453 16.9375 22.9922 16.8438C23.0391 16.7266 23.0977 16.6328 23.168 16.5625C23.2617 16.4922 23.3555 16.4219 23.4492 16.3516C23.543 16.2578 23.625 16.1758 23.6953 16.1055C23.7891 16.0117 23.8945 15.9414 24.0117 15.8945C24.0586 15.7773 24.1055 15.6719 24.1523 15.5781C24.2227 15.4609 24.2812 15.332 24.3281 15.1914C24.4219 15.1445 24.5039 15.1094 24.5742 15.0859C24.6445 15.0625 24.7031 15.0156 24.75 14.9453C24.9609 14.9688 25.1719 14.9453 25.3828 14.875C25.5938 14.7812 25.793 14.7344 25.9805 14.7344C26.1914 14.7344 26.3672 14.7109 26.5078 14.6641H27C27.1641 14.6641 27.3164 14.6875 27.457 14.7344C27.5977 14.7812 27.7617 14.7812 27.9492 14.7344C28.0664 14.7578 28.1836 14.793 28.3008 14.8398C28.4414 14.8867 28.582 14.875 28.7227 14.8047C28.8398 14.9453 29.0508 15.0859 29.3555 15.2266C29.6836 15.3438 29.9297 15.543 30.0938 15.8242C30.2812 16.1055 30.4219 16.3047 30.5156 16.4219C30.6094 16.5156 30.6914 16.6445 30.7617 16.8086C30.832 16.9492 30.9023 17.0898 30.9727 17.2305C31.0664 17.3477 31.1484 17.4766 31.2188 17.6172C31.2891 17.7344 31.3711 17.8633 31.4648 18.0039C31.5586 18.1445 31.6289 18.2852 31.6758 18.4258C31.7461 18.5664 31.8398 18.6836 31.957 18.7773C31.8867 19.0352 31.9688 19.3398 32.2031 19.6914C32.2266 19.7852 32.2383 19.8672 32.2383 19.9375C32.2617 20.0078 32.2969 20.125 32.3438 20.2891C32.3906 20.4297 32.4258 20.6406 32.4492 20.9219C32.4727 21.1797 32.4961 21.4023 32.5195 21.5898C32.5664 21.7539 32.6016 21.8711 32.625 21.9414C32.6719 22.0117 32.707 22.1172 32.7305 22.2578C32.7539 22.3984 32.7539 22.5859 32.7305 22.8203C32.7305 23.0312 32.7422 23.2188 32.7656 23.3828C32.7891 23.5234 32.7891 23.6289 32.7656 23.6992C32.7422 23.7695 32.7305 23.8516 32.7305 23.9453L32.8359 24.4375C32.8359 24.5781 32.8242 24.7188 32.8008 24.8594C32.7773 25 32.7773 25.1523 32.8008 25.3164C32.8242 25.4805 32.8711 25.6914 32.9414 25.9492C33.0117 26.1836 33.0586 26.418 33.082 26.6523C33.1289 26.8633 33.1523 27.0508 33.1523 27.2148V27.6719C33.1523 27.8125 33.1172 28.2344 33.0469 28.9375L33.1523 29.3945C33.1055 29.6523 33.082 30.0977 33.082 30.7305L33.0117 31.1523C33.0586 31.2461 33.0586 31.3398 33.0117 31.4336C32.9883 31.5273 32.9766 31.6445 32.9766 31.7852C32.9766 31.9258 33.0234 32.0547 33.1172 32.1719C33.2344 32.2891 33.2461 32.4414 33.1523 32.6289C33.4805 32.7695 33.7383 32.8047 33.9258 32.7344C34.3242 32.6172 34.6523 32.5938 34.9102 32.6641C35.1914 32.7344 35.3789 32.7812 35.4727 32.8047C35.5898 32.8281 35.6719 32.8633 35.7188 32.9102C35.8359 33.1914 35.9062 33.3906 35.9297 33.5078C35.9766 33.6016 35.918 33.6953 35.7539 33.7891C35.5898 33.8828 35.4961 33.9883 35.4727 34.1055C34.8398 34.2227 34.2891 34.2812 33.8203 34.2812C33.3516 34.2812 32.8828 34.4102 32.4141 34.668ZM26.2617 26.8633L25.875 26.7227C25.4766 27.0273 25.0781 27.2383 24.6797 27.3555C24.5625 27.4727 24.4922 27.625 24.4688 27.8125C24.4453 28 24.3984 28.2227 24.3281 28.4805C24.2812 28.7383 24.2695 28.9023 24.293 28.9727C24.4336 29.2305 24.5039 29.3945 24.5039 29.4648C24.5039 29.5352 24.5391 29.6523 24.6094 29.8164C24.7031 29.9805 24.7617 30.1094 24.7852 30.2031C24.9727 30.2969 25.1133 30.4141 25.207 30.5547C25.3242 30.6953 25.4531 30.7891 25.5938 30.8359C25.7578 30.8828 25.8984 30.8828 26.0156 30.8359C26.1328 30.7891 26.2383 30.8125 26.332 30.9062C26.4258 30.8828 26.5547 30.8828 26.7188 30.9062C26.9062 30.9062 27.082 30.8945 27.2461 30.8711C27.3867 30.7305 27.5508 30.6719 27.7383 30.6953C27.9258 30.6953 28.0898 30.6484 28.2305 30.5547C28.5586 30.25 28.7461 30.0508 28.793 29.957C28.8633 29.8633 28.9922 29.7695 29.1797 29.6758C29.25 29.0898 29.2852 28.5859 29.2852 28.1641C29.1445 28 29.0039 27.8711 28.8633 27.7773C28.7461 27.6836 28.6641 27.5195 28.6172 27.2852C28.5234 27.2148 28.4297 27.168 28.3359 27.1445C28.2422 27.0977 28.1719 27.0273 28.125 26.9336C28.0078 26.9336 27.9375 26.9453 27.9141 26.9688C27.9141 26.9688 27.832 26.9336 27.668 26.8633C27.5039 26.793 27.0352 26.793 26.2617 26.8633ZM37.9688 11.6758C37.4297 11.3008 37.0547 10.7383 36.8438 9.98828C36.9141 9.84766 36.9492 9.66016 36.9492 9.42578C36.9492 9.19141 36.9844 8.99219 37.0547 8.82812C37.1719 8.71094 37.3125 8.62891 37.4766 8.58203C37.6406 8.51172 37.7812 8.39453 37.8984 8.23047C38.0391 8.25391 38.1562 8.24219 38.25 8.19531C38.3438 8.125 38.4492 8.07812 38.5664 8.05469C38.8008 8.10156 38.9883 8.11328 39.1289 8.08984C39.293 8.06641 39.457 8.10156 39.6211 8.19531C39.8086 8.26562 39.9023 8.32422 39.9023 8.37109C39.9258 8.41797 39.9727 8.46484 40.043 8.51172C40.1133 8.53516 40.1836 8.53516 40.2539 8.51172C40.3477 8.48828 40.4297 8.5 40.5 8.54688C40.6172 8.71094 40.7344 8.86328 40.8516 9.00391C40.9688 9.14453 41.0508 9.30859 41.0977 9.49609C41.0508 9.68359 41.0391 9.80078 41.0625 9.84766C41.1094 9.89453 41.1094 10.0117 41.0625 10.1992C41.0156 10.3633 40.8633 10.5742 40.6055 10.832C40.3711 11.0664 40.2305 11.2188 40.1836 11.2891C40.1602 11.3594 40.125 11.418 40.0781 11.4648C40.0312 11.4883 39.9727 11.5 39.9023 11.5C39.8086 11.5 39.5977 11.582 39.2695 11.7461C39.0352 11.793 38.8125 11.7812 38.6016 11.7109C38.4141 11.6406 38.2031 11.6289 37.9688 11.6758ZM38.0742 25.7031L37.9336 24.6133C37.9336 24.2852 37.9453 23.9805 37.9688 23.6992C37.9922 23.3945 37.9805 23.1016 37.9336 22.8203C37.9102 22.5156 37.8867 22.293 37.8633 22.1523C37.8398 21.9883 37.8516 21.8008 37.8984 21.5898C37.8984 21.2617 37.9102 21.0977 37.9336 21.0977C37.957 21.0742 37.9102 21.0156 37.793 20.9219C37.9336 20.6406 37.9688 20.418 37.8984 20.2539C37.8516 20.0898 37.8516 19.9375 37.8984 19.7969C37.9453 19.6328 37.9102 19.4922 37.793 19.375C37.3711 19.3047 36.6914 19.3984 35.7539 19.6562C35.543 19.7266 35.332 19.7031 35.1211 19.5859C35.0742 19.4453 35.0742 19.2578 35.1211 19.0234C35.168 18.7891 35.1914 18.5898 35.1914 18.4258C35.2617 18.4492 35.3086 18.4258 35.332 18.3555C35.3789 18.2617 35.4375 18.1914 35.5078 18.1445L35.9297 18.0039C36.0234 17.9805 36.1172 17.9805 36.2109 18.0039C36.3047 18.0273 36.4922 18.0039 36.7734 17.9336C37.0781 17.8633 37.3828 17.8164 37.6875 17.793C37.9922 17.7461 38.2148 17.6875 38.3555 17.6172C38.4961 17.5234 38.5898 17.4531 38.6367 17.4062C38.6836 17.3594 38.8008 17.3008 38.9883 17.2305C39.1992 17.1602 39.457 17.1367 39.7617 17.1602C40.0664 17.1602 40.3594 17.1602 40.6406 17.1602C40.7109 17.4883 40.7578 17.8398 40.7812 18.2148C40.8281 18.5664 40.8867 18.8477 40.957 19.0586C41.0273 19.2461 41.0742 19.375 41.0977 19.4453C41.1445 19.5156 41.1797 19.6328 41.2031 19.7969C41.25 19.9609 41.2734 20.1602 41.2734 20.3945C41.2734 20.6289 41.2969 20.8516 41.3438 21.0625C41.3906 21.2734 41.4375 21.4727 41.4844 21.6602C41.5547 21.8477 41.6016 22.0234 41.625 22.1875C41.6719 22.3516 41.6953 22.5156 41.6953 22.6797C41.6953 22.8438 41.6953 23.0078 41.6953 23.1719L41.7656 23.6289L41.6953 24.0859L41.8359 24.543V25.2461L41.9414 26.0195C41.9414 26.1367 41.918 26.2891 41.8711 26.4766L41.9414 27.4609C41.9648 27.8125 41.9531 28.1523 41.9062 28.4805C41.8828 28.8086 41.8945 29.1367 41.9414 29.4648C42.0352 29.6992 42.0703 29.8633 42.0469 29.957C42.0469 30.0273 42.0586 30.1094 42.082 30.2031C42.1055 30.2734 42.1406 30.3906 42.1875 30.5547C42.2578 30.6953 42.293 30.8594 42.293 31.0469C42.293 31.2109 42.293 31.3984 42.293 31.6094C42.3164 31.7969 42.3984 31.8906 42.5391 31.8906C42.3984 32.4062 42.3281 32.7695 42.3281 32.9805C42.3281 33.168 42.3984 33.3789 42.5391 33.6133C42.4688 33.8945 42.4688 34.1641 42.5391 34.4219C42.6094 34.6797 42.6328 34.9727 42.6094 35.3008C42.5391 35.5117 42.5391 35.7461 42.6094 36.0039C42.6094 36.168 42.6211 36.2969 42.6445 36.3906C42.668 36.5078 42.668 36.6836 42.6445 36.918C42.6211 37.1523 42.6211 37.3164 42.6445 37.4102C42.668 37.5273 42.668 37.6328 42.6445 37.7266C42.6445 37.8438 42.6328 37.9258 42.6094 37.9727C42.5859 38.043 42.5508 38.1484 42.5039 38.2891C42.4805 38.4531 42.4805 38.6406 42.5039 38.8516C42.5273 39.0625 42.5156 39.2617 42.4688 39.4492C42.3516 39.5898 42.293 39.6719 42.293 39.6953C42.3164 39.7422 42.3281 39.7891 42.3281 39.8359C42.1406 40.0469 42.0117 40.2109 41.9414 40.3281C41.8945 40.4453 41.8125 40.5273 41.6953 40.5742C41.6953 40.9258 41.6367 41.207 41.5195 41.418L41.2383 41.9453C41.168 42.0625 41.1211 42.2148 41.0977 42.4023C40.9336 42.4961 40.7812 42.625 40.6406 42.7891C40.5 42.9766 40.3828 43.1055 40.2891 43.1758C40.1953 43.2461 40.1484 43.3633 40.1484 43.5273C39.9609 43.5742 39.8086 43.668 39.6914 43.8086C39.5742 43.9492 39.457 44.043 39.3398 44.0898C39.2461 44.1367 39.1641 44.1836 39.0938 44.2305C39.0234 44.3008 38.9531 44.3594 38.8828 44.4062C38.8359 44.4766 38.7773 44.5234 38.707 44.5469C38.6602 44.5703 38.5898 44.5703 38.4961 44.5469C38.4258 44.5469 38.3438 44.5469 38.25 44.5469C38.0625 44.6406 37.8633 44.7227 37.6523 44.793C37.4648 44.8867 37.2891 44.9922 37.125 45.1094C36.9844 45.1562 36.8555 45.1562 36.7383 45.1094C36.6211 45.0625 36.5039 45.0391 36.3867 45.0391L35.543 45.2852L35.0508 45.1797L34.5938 45.2852C34.1953 45.0742 33.9141 44.9219 33.75 44.8281C33.5625 44.7344 33.3398 44.6523 33.082 44.582C33.0117 44.418 32.918 44.2656 32.8008 44.125C32.6602 44.0078 32.5781 43.9141 32.5547 43.8438C32.5078 43.7969 32.4375 43.75 32.3438 43.7031C32.2969 43.6562 32.2617 43.5859 32.2383 43.4922C32.2148 43.4219 32.1328 43.3516 31.9922 43.2812C31.8516 43.2344 31.7695 43.1641 31.7461 43.0703C31.7227 42.9766 31.6523 42.9297 31.5352 42.9297C31.582 42.7422 31.582 42.5781 31.5352 42.4375C31.4648 42.2969 31.418 42.1445 31.3945 41.9805C31.4414 41.6523 31.4531 41.4531 31.4297 41.3828C31.3828 41.3125 31.3828 41.2422 31.4297 41.1719C31.4766 41.1016 31.5 40.9961 31.5 40.8555C31.4766 40.7383 31.5234 40.5977 31.6406 40.4336C31.7578 40.2695 31.8633 40.1641 31.957 40.1172C32.0508 40.0938 32.0742 40.0234 32.0273 39.9062C32.3789 39.9297 32.625 39.8359 32.7656 39.625C32.8828 39.4375 33.0469 39.2852 33.2578 39.168L33.8555 39.4492C34.418 39.1914 34.8984 39.2383 35.2969 39.5898C35.7188 39.9648 35.8594 40.5039 35.7188 41.207C35.6016 41.418 35.5195 41.5703 35.4727 41.6641C35.4258 41.7812 35.3438 41.8633 35.2266 41.9102C34.9688 41.9336 34.7695 41.9102 34.6289 41.8398C34.4883 41.7695 34.3125 41.7227 34.1016 41.6992C34.0312 41.3945 33.8906 41.1133 33.6797 40.8555C33.0469 40.8555 32.7305 40.9844 32.7305 41.2422C32.7305 41.3359 32.6953 41.4297 32.625 41.5234C32.5312 41.6172 32.4961 41.7227 32.5195 41.8398C32.5195 41.9805 32.5547 42.1094 32.625 42.2266C32.6953 42.3438 32.7773 42.4609 32.8711 42.5781C32.9414 42.7188 32.9883 42.8359 33.0117 42.9297C33.2695 42.9531 33.4453 43.0352 33.5391 43.1758C33.6328 43.3164 33.7969 43.4805 34.0312 43.668C34.2656 43.8555 34.4414 43.9609 34.5586 43.9844C34.6758 44.0312 34.7578 44.0547 34.8047 44.0547C34.8516 44.0547 34.9922 44.0664 35.2266 44.0898C35.4844 44.1367 35.7188 44.1133 35.9297 44.0195C36.1406 43.9492 36.3281 43.8789 36.4922 43.8086C36.6562 43.7617 36.7852 43.7266 36.8789 43.7031C36.9727 43.6797 37.0664 43.6445 37.1602 43.5977C37.2773 43.5508 37.3594 43.4922 37.4062 43.4219C37.4766 43.375 37.5703 43.3398 37.6875 43.3164C37.7578 43.2227 37.8281 43.1172 37.8984 43C37.9688 42.9062 38.0625 42.8359 38.1797 42.7891C38.2969 42.4375 38.4258 42.1914 38.5664 42.0508C38.8008 40.1523 38.8242 38.7578 38.6367 37.8672C38.6133 37.7734 38.5898 37.6328 38.5664 37.4453C38.543 37.2578 38.5195 37.1641 38.4961 37.1641C38.4258 37.1172 38.3906 36.8945 38.3906 36.4961V35.9688C38.4141 35.6875 38.3789 35.418 38.2852 35.1602C38.2148 34.9023 38.1797 34.7148 38.1797 34.5977C38.2031 34.5039 38.2031 34.375 38.1797 34.2109L38.1445 33.6133V31.4688C38.0508 30.25 38.0156 29.5352 38.0391 29.3242C38.0625 29.0898 38.0508 28.9258 38.0039 28.832C37.9805 28.7383 37.957 28.6328 37.9336 28.5156L38.0039 28.0586L37.8984 27.5312L38.0742 25.7031ZM45.7031 9.10938C45.9609 8.85156 46.125 8.58203 46.1953 8.30078C46.2891 8.30078 46.3594 8.26562 46.4062 8.19531C46.4531 8.125 46.5703 8.05469 46.7578 7.98438C46.9453 7.91406 47.1211 7.86719 47.2852 7.84375C47.4727 7.82031 47.6953 7.75 47.9531 7.63281C48.2344 7.51562 48.5156 7.52734 48.7969 7.66797C49.0078 7.85547 49.1367 7.98438 49.1836 8.05469C49.2305 8.125 49.3008 8.19531 49.3945 8.26562C49.5117 8.3125 49.6523 8.34766 49.8164 8.37109C50.0039 8.37109 50.1211 8.45313 50.168 8.61719C50.1445 8.80469 50.0742 8.94531 49.957 9.03906C49.8398 9.10938 49.7344 9.21484 49.6406 9.35547C49.6406 9.54297 49.6406 9.76562 49.6406 10.0234C49.6641 10.2578 49.5938 10.4219 49.4297 10.5156C49.3828 10.5859 49.3828 10.668 49.4297 10.7617C49.5 10.832 49.4883 10.8789 49.3945 10.9023C49.3477 11.043 49.2422 11.1484 49.0781 11.2188C48.9141 11.2656 48.7852 11.3359 48.6914 11.4297C48.6211 11.5 48.5039 11.5352 48.3398 11.5352C47.4727 11.5352 46.875 11.2891 46.5469 10.7969C46.4297 10.6328 46.2773 10.5391 46.0898 10.5156C46.043 10.3984 45.9727 10.3164 45.8789 10.2695C45.8086 10.1992 45.7266 10.1289 45.6328 10.0586C45.6328 9.87109 45.6562 9.71875 45.7031 9.60156C45.75 9.46094 45.75 9.29688 45.7031 9.10938ZM49.2188 16.2812C49.4062 16.1641 49.6523 16.1055 49.957 16.1055C50.2617 16.1055 50.5078 16.1055 50.6953 16.1055C50.8828 16.082 51.0352 16.1875 51.1523 16.4219C51.2695 16.6562 51.2695 16.8789 51.1523 17.0898C51.1055 17.2773 51.0234 17.3828 50.9062 17.4062C50.5781 17.4766 50.2266 17.6992 49.8516 18.0742C49.875 18.2617 49.8867 18.4609 49.8867 18.6719C49.8867 18.8828 49.8984 19.0586 49.9219 19.1992C49.9453 19.3398 49.957 19.457 49.957 19.5508C49.9805 19.6445 50.0039 19.75 50.0273 19.8672C50.0508 19.9609 50.0742 20.043 50.0977 20.1133C50.1445 20.1836 50.168 20.2539 50.168 20.3242L50.1328 20.8164C50.1797 21.0742 50.2031 21.6836 50.2031 22.6445C50.2969 23.043 50.332 23.3359 50.3086 23.5234C50.2852 23.6875 50.2734 23.8633 50.2734 24.0508L50.4844 25.3867C50.4844 25.7617 50.4492 26.207 50.3789 26.7227C50.3086 27.2383 50.2734 27.5664 50.2734 27.707C50.2969 27.8477 50.2969 28.0234 50.2734 28.2344C50.25 28.4453 50.2266 28.6562 50.2031 28.8672C50.1797 29.0781 50.1914 29.2891 50.2383 29.5C50.2617 29.5938 50.3203 29.6289 50.4141 29.6055C50.5078 29.582 50.6016 29.6055 50.6953 29.6758C50.7891 29.7461 50.8945 29.7578 51.0117 29.7109C51.1289 29.6406 51.293 29.6289 51.5039 29.6758C51.7617 29.9336 51.8555 30.2734 51.7852 30.6953C51.5039 30.9531 51.3047 31.1055 51.1875 31.1523C51.0938 31.1992 50.9648 31.2109 50.8008 31.1875C50.6602 31.1641 50.5312 31.1875 50.4141 31.2578C50.1094 31.0703 49.875 30.9766 49.7109 30.9766C49.5703 30.9531 49.3945 31 49.1836 31.1172C48.9727 31.2344 48.832 31.3398 48.7617 31.4336C48.6914 31.5039 48.5625 31.5625 48.375 31.6094C48.1875 31.6562 47.9648 31.6445 47.707 31.5742C47.4492 31.5039 47.2031 31.4805 46.9688 31.5039C46.7344 31.5039 46.0898 31.6562 45.0352 31.9609C44.7773 31.8906 44.5195 31.7852 44.2617 31.6445C44.1914 31.4805 44.1914 31.2461 44.2617 30.9414C44.8711 30.6133 45.3516 30.4492 45.7031 30.4492C46.0781 30.4492 46.3008 30.3789 46.3711 30.2383C46.4414 30.0742 46.5352 29.9805 46.6523 29.957C46.6758 29.8633 46.6406 29.793 46.5469 29.7461C46.4766 29.6758 46.4766 29.6172 46.5469 29.5703C46.6875 29.2422 46.7227 28.9258 46.6523 28.6211C46.582 28.293 46.6055 27.8242 46.7227 27.2148C46.7227 26.9102 46.6875 26.6289 46.6172 26.3711C46.5469 26.1133 46.5469 25.8086 46.6172 25.457C46.7109 25.1055 46.6992 24.7891 46.582 24.5078C46.6289 24.2969 46.6758 24.0742 46.7227 23.8398C46.793 23.6055 46.8047 23.3828 46.7578 23.1719C46.7344 22.9609 46.7344 22.6914 46.7578 22.3633L46.9688 21.8359C46.9688 21.7891 46.957 21.7305 46.9336 21.6602C46.9102 21.5898 46.9102 21.4609 46.9336 21.2734C46.9805 21.0859 46.9922 20.9688 46.9688 20.9219C46.9453 20.875 46.9336 20.8164 46.9336 20.7461L47.0391 20.0078C47.0625 19.9141 47.0508 19.8203 47.0039 19.7266C46.9805 19.6328 46.9688 19.5273 46.9688 19.4102C47.0391 19.2227 47.0508 19.0352 47.0039 18.8477C46.957 18.6367 46.9336 18.4609 46.9336 18.3203C46.957 18.1797 46.875 18.0742 46.6875 18.0039C46.5 18.0039 46.3242 18.0156 46.1602 18.0391C45.832 18.1094 45.4922 17.9688 45.1406 17.6172C45.1875 17.2422 45.3281 16.9375 45.5625 16.7031C45.8438 16.6562 46.0781 16.668 46.2656 16.7383C46.4766 16.7852 46.6992 16.8086 46.9336 16.8086C47.1914 16.6914 47.3438 16.6445 47.3906 16.668C47.4609 16.668 47.5664 16.6211 47.707 16.5273C47.8711 16.4102 47.9648 16.3633 47.9883 16.3867C48.0352 16.3867 48.1172 16.3633 48.2344 16.3164C48.375 16.2695 48.5625 16.2461 48.7969 16.2461C49.0547 16.2461 49.1953 16.2578 49.2188 16.2812ZM64.1602 34.668L62.6484 34.5977C62.5547 34.5977 62.4141 34.5156 62.2266 34.3516C62.0391 34.1875 61.9102 34.1172 61.8398 34.1406L61.3828 33.4727C61.2891 33.1914 61.2422 32.9219 61.2422 32.6641V31.9258C61.125 31.8555 61.0312 31.75 60.9609 31.6094C60.5156 31.7031 60.2344 31.8086 60.1172 31.9258C60.0234 32.043 59.9414 32.125 59.8711 32.1719C59.5195 32.1719 59.1914 32.3242 58.8867 32.6289C58.7695 32.5352 58.6406 32.5234 58.5 32.5938C58.3594 32.6406 58.207 32.6523 58.043 32.6289C57.9023 32.6055 57.7969 32.582 57.7266 32.5586C57.6562 32.5117 57.5625 32.4648 57.4453 32.418C57.3047 32.4648 57.1758 32.4766 57.0586 32.4531C56.9414 32.4297 56.7891 32.4297 56.6016 32.4531C56.4609 32.2891 56.1445 32.1133 55.6523 31.9258C55.3242 31.7148 54.9609 31.5625 54.5625 31.4688C54.0938 30.7656 53.7188 30.168 53.4375 29.6758C53.5078 29.4648 53.5195 29.2422 53.4727 29.0078C53.4023 28.6094 53.4844 28.2344 53.7188 27.8828C53.8828 27.4609 54.0938 27.1328 54.3516 26.8984C54.6328 26.6406 54.832 26.4648 54.9492 26.3711C55.0664 26.2539 55.1953 26.1602 55.3359 26.0898C55.4766 25.9961 55.6055 25.8672 55.7227 25.7031C55.8633 25.5156 56.0273 25.3984 56.2148 25.3516C56.4258 25.3047 56.6133 25.2812 56.7773 25.2812C56.9414 25.2578 57.1289 25.2227 57.3398 25.1758C57.5508 25.1289 57.6914 25.0938 57.7617 25.0703C58.0195 24.9766 58.418 25.0352 58.957 25.2461C59.2617 25.1992 59.5312 25.1992 59.7656 25.2461C60.0234 25.2695 60.3164 25.2695 60.6445 25.2461C60.832 25.1289 60.9141 25 60.8906 24.8594C60.8906 24.7188 60.8906 24.5547 60.8906 24.3672C60.8906 24.1797 60.8789 24.0391 60.8555 23.9453L60.7148 23.4883C60.7617 22.8555 60.7266 22.3984 60.6094 22.1172C60.6562 21.9062 60.668 21.7891 60.6445 21.7656C60.6211 21.7422 60.6094 21.6953 60.6094 21.625C60.6094 21.5312 60.5977 21.4023 60.5742 21.2383C60.5508 21.0742 60.5156 20.8867 60.4688 20.6758C60.4453 20.4648 60.3984 20.1602 60.3281 19.7617C60.2812 19.3398 60.2227 19.0234 60.1523 18.8125C60.082 18.5781 60.0234 18.4023 59.9766 18.2852C59.9531 18.168 59.918 18.0508 59.8711 17.9336C59.8242 17.8164 59.7891 17.7109 59.7656 17.6172C59.7656 17.5 59.7188 17.3711 59.625 17.2305C59.5547 17.0898 59.4961 16.9844 59.4492 16.9141C59.4023 16.8203 59.332 16.7383 59.2383 16.668C59.1914 16.5977 59.1562 16.5039 59.1328 16.3867C59.1328 16.2695 59.0977 16.1875 59.0273 16.1406C58.7695 16.0938 58.5117 16.0703 58.2539 16.0703C58.0195 16.0703 57.8438 16.1523 57.7266 16.3164C57.2812 16.3164 56.9648 16.375 56.7773 16.4922C56.6602 16.6562 56.625 16.8203 56.6719 16.9844C56.7188 17.1484 56.7305 17.3008 56.707 17.4414C56.6836 17.5586 56.6484 17.6641 56.6016 17.7578C56.5781 17.8516 56.5547 17.9453 56.5312 18.0391C56.6016 18.2734 56.625 18.4609 56.6016 18.6016C56.6016 18.7422 56.6602 18.9297 56.7773 19.1641C56.918 19.3984 57.0234 19.5508 57.0938 19.6211C57.1641 19.6914 57.2578 19.75 57.375 19.7969C57.5156 19.8438 57.6211 19.8672 57.6914 19.8672C57.7852 19.8672 57.9141 19.9258 58.0781 20.043C58.2422 20.1602 58.3477 20.4414 58.3945 20.8867C58.2539 21.1211 57.9844 21.2383 57.5859 21.2383C57.1875 21.2383 56.8711 21.1562 56.6367 20.9922C56.543 20.9922 56.4727 21.0156 56.4258 21.0625C56.3789 21.0859 56.2852 21.0859 56.1445 21.0625C56.0273 21.0156 55.9219 20.9453 55.8281 20.8516C55.7578 20.7578 55.6289 20.7109 55.4414 20.7109C55.3945 20.5469 55.3125 20.418 55.1953 20.3242C55.1016 20.207 55.0078 20.0898 54.9141 19.9727C54.8438 19.7383 54.7852 19.6211 54.7383 19.6211C54.7148 19.6211 54.7031 19.6094 54.7031 19.5859C54.3984 19.1406 54.293 18.6836 54.3867 18.2148C54.3867 18.1211 54.4102 18.0273 54.457 17.9336C54.5039 17.8164 54.5508 17.6992 54.5977 17.582C54.6445 17.4414 54.668 17.3125 54.668 17.1953C54.668 17.0547 54.6914 16.9375 54.7383 16.8438C54.7852 16.7266 54.8438 16.6328 54.9141 16.5625C55.0078 16.4922 55.1016 16.4219 55.1953 16.3516C55.2891 16.2578 55.3711 16.1758 55.4414 16.1055C55.5352 16.0117 55.6406 15.9414 55.7578 15.8945C55.8047 15.7773 55.8516 15.6719 55.8984 15.5781C55.9688 15.4609 56.0273 15.332 56.0742 15.1914C56.168 15.1445 56.25 15.1094 56.3203 15.0859C56.3906 15.0625 56.4492 15.0156 56.4961 14.9453C56.707 14.9688 56.918 14.9453 57.1289 14.875C57.3398 14.7812 57.5391 14.7344 57.7266 14.7344C57.9375 14.7344 58.1133 14.7109 58.2539 14.6641H58.7461C58.9102 14.6641 59.0625 14.6875 59.2031 14.7344C59.3438 14.7812 59.5078 14.7812 59.6953 14.7344C59.8125 14.7578 59.9297 14.793 60.0469 14.8398C60.1875 14.8867 60.3281 14.875 60.4688 14.8047C60.5859 14.9453 60.7969 15.0859 61.1016 15.2266C61.4297 15.3438 61.6758 15.543 61.8398 15.8242C62.0273 16.1055 62.168 16.3047 62.2617 16.4219C62.3555 16.5156 62.4375 16.6445 62.5078 16.8086C62.5781 16.9492 62.6484 17.0898 62.7188 17.2305C62.8125 17.3477 62.8945 17.4766 62.9648 17.6172C63.0352 17.7344 63.1172 17.8633 63.2109 18.0039C63.3047 18.1445 63.375 18.2852 63.4219 18.4258C63.4922 18.5664 63.5859 18.6836 63.7031 18.7773C63.6328 19.0352 63.7148 19.3398 63.9492 19.6914C63.9727 19.7852 63.9844 19.8672 63.9844 19.9375C64.0078 20.0078 64.043 20.125 64.0898 20.2891C64.1367 20.4297 64.1719 20.6406 64.1953 20.9219C64.2188 21.1797 64.2422 21.4023 64.2656 21.5898C64.3125 21.7539 64.3477 21.8711 64.3711 21.9414C64.418 22.0117 64.4531 22.1172 64.4766 22.2578C64.5 22.3984 64.5 22.5859 64.4766 22.8203C64.4766 23.0312 64.4883 23.2188 64.5117 23.3828C64.5352 23.5234 64.5352 23.6289 64.5117 23.6992C64.4883 23.7695 64.4766 23.8516 64.4766 23.9453L64.582 24.4375C64.582 24.5781 64.5703 24.7188 64.5469 24.8594C64.5234 25 64.5234 25.1523 64.5469 25.3164C64.5703 25.4805 64.6172 25.6914 64.6875 25.9492C64.7578 26.1836 64.8047 26.418 64.8281 26.6523C64.875 26.8633 64.8984 27.0508 64.8984 27.2148V27.6719C64.8984 27.8125 64.8633 28.2344 64.793 28.9375L64.8984 29.3945C64.8516 29.6523 64.8281 30.0977 64.8281 30.7305L64.7578 31.1523C64.8047 31.2461 64.8047 31.3398 64.7578 31.4336C64.7344 31.5273 64.7227 31.6445 64.7227 31.7852C64.7227 31.9258 64.7695 32.0547 64.8633 32.1719C64.9805 32.2891 64.9922 32.4414 64.8984 32.6289C65.2266 32.7695 65.4844 32.8047 65.6719 32.7344C66.0703 32.6172 66.3984 32.5938 66.6562 32.6641C66.9375 32.7344 67.125 32.7812 67.2188 32.8047C67.3359 32.8281 67.418 32.8633 67.4648 32.9102C67.582 33.1914 67.6523 33.3906 67.6758 33.5078C67.7227 33.6016 67.6641 33.6953 67.5 33.7891C67.3359 33.8828 67.2422 33.9883 67.2188 34.1055C66.5859 34.2227 66.0352 34.2812 65.5664 34.2812C65.0977 34.2812 64.6289 34.4102 64.1602 34.668ZM58.0078 26.8633L57.6211 26.7227C57.2227 27.0273 56.8242 27.2383 56.4258 27.3555C56.3086 27.4727 56.2383 27.625 56.2148 27.8125C56.1914 28 56.1445 28.2227 56.0742 28.4805C56.0273 28.7383 56.0156 28.9023 56.0391 28.9727C56.1797 29.2305 56.25 29.3945 56.25 29.4648C56.25 29.5352 56.2852 29.6523 56.3555 29.8164C56.4492 29.9805 56.5078 30.1094 56.5312 30.2031C56.7188 30.2969 56.8594 30.4141 56.9531 30.5547C57.0703 30.6953 57.1992 30.7891 57.3398 30.8359C57.5039 30.8828 57.6445 30.8828 57.7617 30.8359C57.8789 30.7891 57.9844 30.8125 58.0781 30.9062C58.1719 30.8828 58.3008 30.8828 58.4648 30.9062C58.6523 30.9062 58.8281 30.8945 58.9922 30.8711C59.1328 30.7305 59.2969 30.6719 59.4844 30.6953C59.6719 30.6953 59.8359 30.6484 59.9766 30.5547C60.3047 30.25 60.4922 30.0508 60.5391 29.957C60.6094 29.8633 60.7383 29.7695 60.9258 29.6758C60.9961 29.0898 61.0312 28.5859 61.0312 28.1641C60.8906 28 60.75 27.8711 60.6094 27.7773C60.4922 27.6836 60.4102 27.5195 60.3633 27.2852C60.2695 27.2148 60.1758 27.168 60.082 27.1445C59.9883 27.0977 59.918 27.0273 59.8711 26.9336C59.7539 26.9336 59.6836 26.9453 59.6602 26.9688C59.6602 26.9688 59.5781 26.9336 59.4141 26.8633C59.25 26.793 58.7812 26.793 58.0078 26.8633ZM91.7227 20.1484L91.9688 21.168C91.9688 21.3789 92.0156 21.6367 92.1094 21.9414C92.2031 22.2461 92.2383 22.4922 92.2148 22.6797C92.1914 22.8672 92.2617 23.3828 92.4258 24.2266C92.5664 24.5312 92.6133 24.7422 92.5664 24.8594C92.543 24.9531 92.543 25.0586 92.5664 25.1758L92.7773 26.0195L92.707 26.4414C92.7305 26.582 92.7656 26.7109 92.8125 26.8281C92.8594 26.9453 92.9062 27.0625 92.9531 27.1797C93.0703 27.2031 93.1289 27.1562 93.1289 27.0391C93.1523 26.8984 93.1875 26.8047 93.2344 26.7578C93.3047 26.6875 93.3398 26.6289 93.3398 26.582C93.3633 26.5352 93.3984 26.418 93.4453 26.2305C93.5156 26.0195 93.5625 25.8906 93.5859 25.8438C93.6094 25.7969 93.6211 25.6914 93.6211 25.5273C93.6445 25.3633 93.6914 25.2578 93.7617 25.2109C93.832 25.1641 93.8672 25 93.8672 24.7188C93.9141 24.6016 93.9844 24.4492 94.0781 24.2617C94.1719 24.0508 94.207 23.875 94.1836 23.7344C94.1602 23.5938 94.1602 23.4766 94.1836 23.3828L94.3594 23.0312C94.4297 22.8672 94.4766 22.7031 94.5 22.5391C94.5469 22.3516 94.5938 22.1992 94.6406 22.082C94.6875 21.9648 94.6992 21.8711 94.6758 21.8008C94.6758 21.7305 94.6875 21.6016 94.7109 21.4141C94.7344 21.2031 94.793 21.0156 94.8867 20.8516C94.9805 20.6875 95.0273 20.5586 95.0273 20.4648C95.0508 20.3711 95.0859 20.3008 95.1328 20.2539C95.1797 20.1836 95.1797 20.1133 95.1328 20.043C95.1094 19.9727 95.1211 19.8438 95.168 19.6562C95.2383 19.4453 95.2969 19.1992 95.3438 18.918C95.3906 18.6367 95.4375 18.4023 95.4844 18.2148C95.5312 18.0039 95.5547 17.8516 95.5547 17.7578C95.5781 17.6641 95.6367 17.582 95.7305 17.5117C95.707 17.2773 95.7305 16.9492 95.8008 16.5273L95.9414 15.8242C95.9414 15.7539 95.9648 15.6367 96.0117 15.4727C96.0586 15.3086 96.1055 15.0391 96.1523 14.6641C96.2227 14.2891 96.3047 14.0078 96.3984 13.8203V13.293C96.4922 13.082 96.5742 12.8359 96.6445 12.5547L96.7852 11.9922C96.8086 11.8984 96.8086 11.8047 96.7852 11.7109C96.7852 11.6172 96.7969 11.5234 96.8203 11.4297C96.8672 11.3125 96.9258 11.1719 96.9961 11.0078C97.0898 10.8203 97.1133 10.5977 97.0664 10.3398C97.1602 10.293 97.2188 10.2227 97.2422 10.1289C97.2656 10.0352 97.3008 9.96484 97.3477 9.91797L97.418 9.32031C97.4648 9.15625 97.4531 9.05078 97.3828 9.00391C97.3359 8.95703 97.3359 8.85156 97.3828 8.6875C97.3828 8.52344 97.4297 8.40625 97.5234 8.33594C97.6406 8.26562 97.6523 8.13672 97.5586 7.94922C97.418 7.80859 97.2656 7.76172 97.1016 7.80859C96.9375 7.85547 96.7734 7.87891 96.6094 7.87891C96.4453 7.85547 96.3398 7.85547 96.293 7.87891C96.2461 7.87891 96.1875 7.89063 96.1172 7.91406C96.0703 7.9375 96.0117 7.97266 95.9414 8.01953C95.8711 8.04297 95.8008 8.04297 95.7305 8.01953C95.6836 7.90234 95.5664 7.75 95.3789 7.5625C95.1914 7.375 95.1094 7.16406 95.1328 6.92969C95.1562 6.67187 95.2383 6.54297 95.3789 6.54297C95.5195 6.54297 95.6836 6.51953 95.8711 6.47266C96.082 6.42578 96.2461 6.37891 96.3633 6.33203C96.5039 6.26172 96.6562 6.22656 96.8203 6.22656L97.2422 6.40234C97.4766 6.35547 97.6172 6.35547 97.6641 6.40234C97.7344 6.44922 97.793 6.47266 97.8398 6.47266L98.543 6.40234C98.918 6.44922 99.1758 6.44922 99.3164 6.40234C99.457 6.33203 99.5977 6.27344 99.7383 6.22656L100.125 6.33203L100.512 6.22656C100.582 6.22656 100.652 6.25 100.723 6.29688C100.816 6.34375 100.898 6.35547 100.969 6.33203C101.039 6.30859 101.121 6.26172 101.215 6.19141C101.309 6.09766 101.414 6.03906 101.531 6.01562C101.742 6.10937 101.848 6.14453 101.848 6.12109C101.871 6.09766 101.906 6.08594 101.953 6.08594C102.047 6.13281 102.129 6.22656 102.199 6.36719C102.27 6.50781 102.352 6.63672 102.445 6.75391C102.422 6.89453 102.375 7.04688 102.305 7.21094C102.234 7.375 102.176 7.51562 102.129 7.63281C101.824 7.84375 101.578 7.89063 101.391 7.77344C101.227 7.65625 101.074 7.59766 100.934 7.59766C100.816 7.71484 100.723 7.76172 100.652 7.73828C100.582 7.69141 100.5 7.69141 100.406 7.73828C100.312 7.78516 100.184 7.85547 100.02 7.94922C99.8789 8.04297 99.7383 8.11328 99.5977 8.16016C99.5273 8.23047 99.5039 8.30078 99.5273 8.37109C99.5742 8.41797 99.5742 8.5 99.5273 8.61719C99.4805 8.73438 99.4219 8.79297 99.3516 8.79297C99.3047 8.76953 99.2578 8.81641 99.2109 8.93359C99.2812 9.40234 99.2578 9.84766 99.1406 10.2695C98.8125 11.3242 98.5664 11.9336 98.4023 12.0977C98.4727 12.707 98.4492 13.1875 98.332 13.5391C98.2148 13.8672 98.1562 14.125 98.1562 14.3125C98.1562 14.5 98.1328 14.6758 98.0859 14.8398C98.0391 15.0039 97.9688 15.1797 97.875 15.3672C97.8047 15.5547 97.793 15.7422 97.8398 15.9297L97.5938 16.457C97.7109 17.043 97.5703 17.9219 97.1719 19.0938C97.1484 19.2109 97.0898 19.3398 96.9961 19.4805C96.9258 19.6211 96.9023 19.75 96.9258 19.8672C96.9727 19.9609 96.9844 20.0664 96.9609 20.1836C96.9375 20.3008 96.8789 20.4648 96.7852 20.6758C96.7148 20.8633 96.7148 21.0625 96.7852 21.2734C96.4805 21.7656 96.3281 22.1758 96.3281 22.5039C96.3281 22.8086 96.2812 23.0664 96.1875 23.2773C96.1172 23.4648 96.0469 23.8281 95.9766 24.3672C95.8125 24.4844 95.7188 24.6484 95.6953 24.8594C95.6953 25.0703 95.6367 25.2695 95.5195 25.457C95.4258 26.2305 95.2734 26.8281 95.0625 27.25C94.7812 27.9062 94.6406 28.3281 94.6406 28.5156V29.0078C94.5703 29.125 94.4883 29.2539 94.3945 29.3945C94.3242 29.5117 94.2539 29.6641 94.1836 29.8516C94.1367 30.0391 94.125 30.2734 94.1484 30.5547C94.1953 30.8125 94.1953 31.0352 94.1484 31.2227C94.1016 31.4102 94.043 31.5508 93.9727 31.6445C93.9258 31.7383 93.8789 31.8438 93.832 31.9609C93.7852 32.0547 93.7617 32.1484 93.7617 32.2422C93.7617 32.3359 93.7383 32.4297 93.6914 32.5234C93.668 32.5938 93.6328 32.6641 93.5859 32.7344C93.5625 32.8047 93.5273 32.8867 93.4805 32.9805C93.457 33.0742 93.4453 33.1914 93.4453 33.332C93.4453 33.4727 93.4102 33.6016 93.3398 33.7188C93.1289 33.8828 93.0117 33.9766 92.9883 34C92.9648 34.0469 92.918 34.082 92.8477 34.1055C92.8008 34.1523 92.7188 34.1875 92.6016 34.2109C92.4844 34.2344 92.3906 34.293 92.3203 34.3867C92.2266 34.3398 92.1445 34.3047 92.0742 34.2812C92.0039 34.2578 91.9219 34.2227 91.8281 34.1758C91.7578 34.1523 91.6641 34.1289 91.5469 34.1055C91.4531 34.1055 91.3711 34.082 91.3008 34.0352C91.2305 33.9883 91.1484 33.9062 91.0547 33.7891C90.9609 33.6719 90.8555 33.6016 90.7383 33.5781C90.668 33.2266 90.6211 32.875 90.5977 32.5234C90.5977 32.1719 90.5039 31.8438 90.3164 31.5391C90.3164 31.375 90.3164 31.2109 90.3164 31.0469C90.3398 30.8828 90.3047 30.6836 90.2109 30.4492C90.1172 30.1914 90.0703 29.9922 90.0703 29.8516C90.0703 29.6875 90.0352 29.5117 89.9648 29.3242C89.8945 29.1133 89.8359 28.9844 89.7891 28.9375C89.7422 28.8906 89.707 28.832 89.6836 28.7617C89.6602 28.668 89.6484 28.5508 89.6484 28.4102C89.6719 28.2695 89.6484 28.0938 89.5781 27.8828C89.5078 27.6719 89.4609 27.4609 89.4375 27.25C89.4141 27.0156 89.3789 26.8047 89.332 26.6172C89.2852 26.4062 89.25 26.2891 89.2266 26.2656C89.2031 26.2422 89.1914 26.2188 89.1914 26.1953V25.668C89.0039 25.082 88.8867 24.6602 88.8398 24.4023C88.793 24.1445 88.7461 23.8984 88.6992 23.6641C88.582 23.3828 88.5234 23.207 88.5234 23.1367C88.5234 23.0664 88.5117 22.9961 88.4883 22.9258L88.3828 22.5391C88.3359 22.2812 88.3008 22.0352 88.2773 21.8008C88.2773 21.5664 88.1953 21.332 88.0312 21.0977C88.0781 20.7227 88.043 20.3945 87.9258 20.1133C87.8086 19.832 87.7383 19.668 87.7148 19.6211C87.7148 19.5508 87.7148 19.4805 87.7148 19.4102C87.7383 19.3164 87.7148 19.1875 87.6445 19.0234C87.5977 18.8359 87.5977 18.6602 87.6445 18.4961C87.6914 18.3086 87.6562 18.0977 87.5391 17.8633C87.4453 17.6289 87.4219 17.4062 87.4688 17.1953C87.2812 16.7031 87.1055 16.3984 86.9414 16.2812C86.8242 16.4453 86.7539 16.6211 86.7305 16.8086C86.707 16.9961 86.6719 17.1836 86.625 17.3711C86.4844 17.6055 86.4141 17.7578 86.4141 17.8281C86.4375 17.8984 86.4258 17.9688 86.3789 18.0391C86.3555 18.1094 86.3086 18.1797 86.2383 18.25C86.1914 18.3203 86.1445 18.4023 86.0977 18.4961C86.0742 18.5664 86.0625 18.6484 86.0625 18.7422C86.0859 18.8359 86.0742 18.9297 86.0273 19.0234C86.0039 19.0938 85.9805 19.1758 85.957 19.2695C85.957 19.3398 85.9336 19.4688 85.8867 19.6562C85.8398 19.8203 85.7578 20.0547 85.6406 20.3594C85.5469 20.6406 85.4766 20.8867 85.4297 21.0977C85.4062 21.2852 85.3945 21.4141 85.3945 21.4844C85.3945 21.8594 85.2656 22.2344 85.0078 22.6094C84.9375 22.8672 84.8789 23.043 84.832 23.1367C84.7852 23.207 84.7852 23.3359 84.832 23.5234C84.7383 23.5703 84.6797 23.6406 84.6562 23.7344C84.6562 23.8047 84.6211 23.9336 84.5508 24.1211C84.4805 24.2852 84.457 24.4023 84.4805 24.4727C84.5039 24.543 84.4922 24.625 84.4453 24.7188C84.4219 24.7891 84.3633 24.8594 84.2695 24.9297C84.1992 25 84.1406 25.082 84.0938 25.1758C84.0938 25.5039 84.0586 25.7734 83.9883 25.9844C83.9414 26.1719 83.9531 26.3945 84.0234 26.6523C83.9766 26.6992 83.9414 26.7695 83.918 26.8633C83.918 26.9336 83.8945 27.0273 83.8477 27.1445C83.8242 27.2383 83.7891 27.3203 83.7422 27.3906C83.7188 27.4609 83.6953 27.543 83.6719 27.6367C83.6484 27.707 83.6484 27.7891 83.6719 27.8828C83.6953 27.9531 83.6953 28.0586 83.6719 28.1992C83.6484 28.3164 83.5898 28.4805 83.4961 28.6914C83.4023 28.9023 83.4023 29.1016 83.4961 29.2891C83.3789 29.4766 83.2969 29.7227 83.25 30.0273C83.2031 30.3086 83.1328 30.5664 83.0391 30.8008C82.9453 30.8711 82.8281 30.918 82.6875 30.9414C82.5703 30.9414 82.4414 30.9648 82.3008 31.0117C82.1602 31.0352 82.0898 31.082 82.0898 31.1523C82.0898 31.1992 81.9961 31.2227 81.8086 31.2227C81.6211 31.1992 81.4688 31.1172 81.3516 30.9766C81.2578 30.8359 81.1641 30.7422 81.0703 30.6953C81 30.6484 80.918 30.5898 80.8242 30.5195C80.707 30.0508 80.5781 29.7461 80.4375 29.6055C80.5547 29.3008 80.5547 28.9375 80.4375 28.5156C80.3203 28.0703 80.2617 27.7539 80.2617 27.5664L80.1211 27.1797C80.1211 27.0391 80.1328 26.9102 80.1562 26.793C80.1797 26.6758 80.1445 26.4766 80.0508 26.1953C79.9805 25.8906 79.957 25.6211 79.9805 25.3867C80.0039 25.1289 79.9922 24.9297 79.9453 24.7891C79.9219 24.625 79.8867 24.4961 79.8398 24.4023C79.793 24.2852 79.7461 24.168 79.6992 24.0508C79.6758 23.9102 79.6523 23.793 79.6289 23.6992C79.6289 23.582 79.6055 23.4414 79.5586 23.2773C79.5352 23.0898 79.5352 22.9844 79.5586 22.9609C79.582 22.9375 79.5938 22.9023 79.5938 22.8555L79.418 22.2227C79.418 22.1523 79.4062 22.0703 79.3828 21.9766C79.3594 21.8594 79.3359 21.7305 79.3125 21.5898C79.3125 21.4258 79.3008 21.2617 79.2773 21.0977C79.1367 20.8398 79.0547 20.6523 79.0312 20.5352C79.0312 20.3945 78.9727 20.2656 78.8555 20.1484C78.832 20.0312 78.832 19.9492 78.8555 19.9023C78.9023 19.832 78.9141 19.75 78.8906 19.6562C78.8672 19.5391 78.8438 19.4102 78.8203 19.2695C78.8203 19.1055 78.7734 18.9297 78.6797 18.7422C78.5859 18.5547 78.5625 18.4023 78.6094 18.2852C78.6094 18.1445 78.5625 18.0625 78.4688 18.0391C78.3984 17.9922 78.3516 17.9102 78.3281 17.793C78.3984 17.5586 78.3984 17.2656 78.3281 16.9141C78.2578 16.5625 78.2227 16.3516 78.2227 16.2812C78.2227 16.1875 78.2109 16.1055 78.1875 16.0352C78.1641 15.9414 78.1289 15.8711 78.082 15.8242C78.0586 15.7539 78.0234 15.6602 77.9766 15.543C77.9531 15.4023 77.9414 15.2383 77.9414 15.0508C77.9414 14.8398 77.8828 14.6758 77.7656 14.5586C77.8828 14.1602 77.8359 13.7148 77.625 13.2227C77.4141 12.707 77.2617 12.3906 77.168 12.2734V11.9922C77.168 11.8984 77.1914 11.8281 77.2383 11.7812C76.7695 11.1953 76.2305 10.9258 75.6211 10.9727C75.5508 10.832 75.4453 10.75 75.3047 10.7266C75.1641 10.7031 75.0586 10.6328 74.9883 10.5156C74.9414 10.375 74.9414 10.2227 74.9883 10.0586C75.0352 9.89453 75.082 9.73047 75.1289 9.56641C75.2461 9.49609 75.4805 9.44922 75.832 9.42578C76.207 9.37891 76.4414 9.32031 76.5352 9.25C76.6523 9.17969 76.7695 9.14453 76.8867 9.14453L78.2227 8.96875C78.4102 8.96875 78.6094 8.86328 78.8203 8.65234C78.9609 8.55859 79.0781 8.52344 79.1719 8.54688C79.2656 8.54688 79.3945 8.52344 79.5586 8.47656C79.7461 8.40625 79.9102 8.40625 80.0508 8.47656C80.1914 8.52344 80.332 8.54688 80.4727 8.54688C80.6367 8.52344 80.7656 8.48828 80.8594 8.44141C80.9766 8.37109 81.0938 8.3125 81.2109 8.26562C81.5625 8.24219 81.8086 8.25391 81.9492 8.30078C82.0898 8.34766 82.2656 8.35937 82.4766 8.33594C82.6406 8.59375 82.7227 8.81641 82.7227 9.00391C82.7227 9.19141 82.6641 9.35547 82.5469 9.49609C82.4531 9.61328 82.3828 9.73047 82.3359 9.84766C81.5625 10.0586 80.9531 10.457 80.5078 11.043C80.5078 11.3008 80.5547 11.5234 80.6484 11.7109C80.7422 11.8984 80.7891 12.0859 80.7891 12.2734C80.7891 12.4375 80.8008 12.5898 80.8242 12.7305C80.8711 12.8711 80.918 13.0117 80.9648 13.1523C81.0117 13.2695 81.0469 13.3984 81.0703 13.5391C81.1172 13.6562 81.1289 13.7734 81.1055 13.8906C81.082 13.9844 81.0938 14.1016 81.1406 14.2422C81.1875 14.3594 81.2461 14.4766 81.3164 14.5938C81.4102 14.7109 81.4336 14.8984 81.3867 15.1562C81.5273 15.3672 81.6094 15.625 81.6328 15.9297C81.6797 16.2344 81.7266 16.5391 81.7734 16.8438C81.8203 17.125 81.8672 17.3945 81.9141 17.6523C81.9609 17.9102 82.0078 18.168 82.0547 18.4258C82.1016 18.4961 82.125 18.5664 82.125 18.6367C82.125 18.707 82.1602 18.8359 82.2305 19.0234C82.3008 19.1875 82.3242 19.3398 82.3008 19.4805C82.3008 19.5977 82.3125 19.7383 82.3359 19.9023C82.3828 20.0664 82.4414 20.2305 82.5117 20.3945C82.6055 20.5352 82.6523 20.8516 82.6523 21.3438V22.5391C82.6758 22.7031 82.7344 22.9023 82.8281 23.1367C82.9219 23.3477 82.9922 23.4531 83.0391 23.4531C83.1797 23.4531 83.2969 23.2539 83.3906 22.8555C83.4844 22.4336 83.543 22.1758 83.5664 22.082C83.6133 21.9648 83.6367 21.8711 83.6367 21.8008C83.6367 21.707 83.6484 21.6133 83.6719 21.5195C83.6953 21.4258 83.7539 21.2852 83.8477 21.0977C83.9414 20.8867 83.9766 20.7344 83.9531 20.6406C83.9531 20.5469 84 20.4766 84.0938 20.4297L84.1641 19.832C84.3047 19.6211 84.3984 19.3867 84.4453 19.1289C84.4922 18.8711 84.5625 18.6016 84.6562 18.3203C84.7734 18.0391 84.832 17.8516 84.832 17.7578C84.832 17.6406 84.8672 17.5469 84.9375 17.4766C85.0078 17.4062 85.0312 17.3125 85.0078 17.1953C85.0078 17.0781 85.0664 16.9023 85.1836 16.668C85.3008 16.4336 85.3594 16.1875 85.3594 15.9297C85.4531 15.8125 85.5938 15.4141 85.7812 14.7344L85.9219 14.3477C85.9219 14.2773 85.9102 14.207 85.8867 14.1367C85.8867 14.0664 85.8984 14.0078 85.9219 13.9609C85.9453 13.8906 85.9922 13.7734 86.0625 13.6094C86.1328 13.4453 86.1914 13.2695 86.2383 13.082C86.2852 12.8945 86.3555 12.7188 86.4492 12.5547C86.3789 12.2266 86.4023 11.9219 86.5195 11.6406C86.6367 11.3594 86.6367 11.1133 86.5195 10.9023C86.6602 10.7148 86.7422 10.5156 86.7656 10.3047C86.8594 9.88281 87.1289 9.67188 87.5742 9.67188C88.0195 9.64844 88.3359 9.68359 88.5234 9.77734L88.9453 9.98828C89.1797 10.2461 89.3086 10.375 89.332 10.375C89.3555 10.375 89.4023 10.4687 89.4727 10.6562C89.5664 10.8203 89.625 10.9961 89.6484 11.1836C89.6719 11.3711 89.7188 11.6055 89.7891 11.8867C89.8828 12.1445 89.9297 12.3438 89.9297 12.4844C90.0703 12.9062 90.1406 13.2227 90.1406 13.4336C90.1641 13.6211 90.1992 13.7969 90.2461 13.9609C90.293 14.1016 90.3516 14.3477 90.4219 14.6992C90.5625 15.0742 90.6445 15.3555 90.668 15.543C90.6914 15.7305 90.7617 15.8828 90.8789 16C90.8789 16.5156 91.0312 17.1133 91.3359 17.793C91.2656 18.1914 91.2773 18.5547 91.3711 18.8828C91.6055 19.6094 91.7227 20.0312 91.7227 20.1484ZM110.672 34.668L109.16 34.5977C109.066 34.5977 108.926 34.5156 108.738 34.3516C108.551 34.1875 108.422 34.1172 108.352 34.1406L107.895 33.4727C107.801 33.1914 107.754 32.9219 107.754 32.6641V31.9258C107.637 31.8555 107.543 31.75 107.473 31.6094C107.027 31.7031 106.746 31.8086 106.629 31.9258C106.535 32.043 106.453 32.125 106.383 32.1719C106.031 32.1719 105.703 32.3242 105.398 32.6289C105.281 32.5352 105.152 32.5234 105.012 32.5938C104.871 32.6406 104.719 32.6523 104.555 32.6289C104.414 32.6055 104.309 32.582 104.238 32.5586C104.168 32.5117 104.074 32.4648 103.957 32.418C103.816 32.4648 103.688 32.4766 103.57 32.4531C103.453 32.4297 103.301 32.4297 103.113 32.4531C102.973 32.2891 102.656 32.1133 102.164 31.9258C101.836 31.7148 101.473 31.5625 101.074 31.4688C100.605 30.7656 100.23 30.168 99.9492 29.6758C100.02 29.4648 100.031 29.2422 99.9844 29.0078C99.9141 28.6094 99.9961 28.2344 100.23 27.8828C100.395 27.4609 100.605 27.1328 100.863 26.8984C101.145 26.6406 101.344 26.4648 101.461 26.3711C101.578 26.2539 101.707 26.1602 101.848 26.0898C101.988 25.9961 102.117 25.8672 102.234 25.7031C102.375 25.5156 102.539 25.3984 102.727 25.3516C102.938 25.3047 103.125 25.2812 103.289 25.2812C103.453 25.2578 103.641 25.2227 103.852 25.1758C104.062 25.1289 104.203 25.0938 104.273 25.0703C104.531 24.9766 104.93 25.0352 105.469 25.2461C105.773 25.1992 106.043 25.1992 106.277 25.2461C106.535 25.2695 106.828 25.2695 107.156 25.2461C107.344 25.1289 107.426 25 107.402 24.8594C107.402 24.7188 107.402 24.5547 107.402 24.3672C107.402 24.1797 107.391 24.0391 107.367 23.9453L107.227 23.4883C107.273 22.8555 107.238 22.3984 107.121 22.1172C107.168 21.9062 107.18 21.7891 107.156 21.7656C107.133 21.7422 107.121 21.6953 107.121 21.625C107.121 21.5312 107.109 21.4023 107.086 21.2383C107.062 21.0742 107.027 20.8867 106.98 20.6758C106.957 20.4648 106.91 20.1602 106.84 19.7617C106.793 19.3398 106.734 19.0234 106.664 18.8125C106.594 18.5781 106.535 18.4023 106.488 18.2852C106.465 18.168 106.43 18.0508 106.383 17.9336C106.336 17.8164 106.301 17.7109 106.277 17.6172C106.277 17.5 106.23 17.3711 106.137 17.2305C106.066 17.0898 106.008 16.9844 105.961 16.9141C105.914 16.8203 105.844 16.7383 105.75 16.668C105.703 16.5977 105.668 16.5039 105.645 16.3867C105.645 16.2695 105.609 16.1875 105.539 16.1406C105.281 16.0938 105.023 16.0703 104.766 16.0703C104.531 16.0703 104.355 16.1523 104.238 16.3164C103.793 16.3164 103.477 16.375 103.289 16.4922C103.172 16.6562 103.137 16.8203 103.184 16.9844C103.23 17.1484 103.242 17.3008 103.219 17.4414C103.195 17.5586 103.16 17.6641 103.113 17.7578C103.09 17.8516 103.066 17.9453 103.043 18.0391C103.113 18.2734 103.137 18.4609 103.113 18.6016C103.113 18.7422 103.172 18.9297 103.289 19.1641C103.43 19.3984 103.535 19.5508 103.605 19.6211C103.676 19.6914 103.77 19.75 103.887 19.7969C104.027 19.8438 104.133 19.8672 104.203 19.8672C104.297 19.8672 104.426 19.9258 104.59 20.043C104.754 20.1602 104.859 20.4414 104.906 20.8867C104.766 21.1211 104.496 21.2383 104.098 21.2383C103.699 21.2383 103.383 21.1562 103.148 20.9922C103.055 20.9922 102.984 21.0156 102.938 21.0625C102.891 21.0859 102.797 21.0859 102.656 21.0625C102.539 21.0156 102.434 20.9453 102.34 20.8516C102.27 20.7578 102.141 20.7109 101.953 20.7109C101.906 20.5469 101.824 20.418 101.707 20.3242C101.613 20.207 101.52 20.0898 101.426 19.9727C101.355 19.7383 101.297 19.6211 101.25 19.6211C101.227 19.6211 101.215 19.6094 101.215 19.5859C100.91 19.1406 100.805 18.6836 100.898 18.2148C100.898 18.1211 100.922 18.0273 100.969 17.9336C101.016 17.8164 101.062 17.6992 101.109 17.582C101.156 17.4414 101.18 17.3125 101.18 17.1953C101.18 17.0547 101.203 16.9375 101.25 16.8438C101.297 16.7266 101.355 16.6328 101.426 16.5625C101.52 16.4922 101.613 16.4219 101.707 16.3516C101.801 16.2578 101.883 16.1758 101.953 16.1055C102.047 16.0117 102.152 15.9414 102.27 15.8945C102.316 15.7773 102.363 15.6719 102.41 15.5781C102.48 15.4609 102.539 15.332 102.586 15.1914C102.68 15.1445 102.762 15.1094 102.832 15.0859C102.902 15.0625 102.961 15.0156 103.008 14.9453C103.219 14.9688 103.43 14.9453 103.641 14.875C103.852 14.7812 104.051 14.7344 104.238 14.7344C104.449 14.7344 104.625 14.7109 104.766 14.6641H105.258C105.422 14.6641 105.574 14.6875 105.715 14.7344C105.855 14.7812 106.02 14.7812 106.207 14.7344C106.324 14.7578 106.441 14.793 106.559 14.8398C106.699 14.8867 106.84 14.875 106.98 14.8047C107.098 14.9453 107.309 15.0859 107.613 15.2266C107.941 15.3438 108.188 15.543 108.352 15.8242C108.539 16.1055 108.68 16.3047 108.773 16.4219C108.867 16.5156 108.949 16.6445 109.02 16.8086C109.09 16.9492 109.16 17.0898 109.23 17.2305C109.324 17.3477 109.406 17.4766 109.477 17.6172C109.547 17.7344 109.629 17.8633 109.723 18.0039C109.816 18.1445 109.887 18.2852 109.934 18.4258C110.004 18.5664 110.098 18.6836 110.215 18.7773C110.145 19.0352 110.227 19.3398 110.461 19.6914C110.484 19.7852 110.496 19.8672 110.496 19.9375C110.52 20.0078 110.555 20.125 110.602 20.2891C110.648 20.4297 110.684 20.6406 110.707 20.9219C110.73 21.1797 110.754 21.4023 110.777 21.5898C110.824 21.7539 110.859 21.8711 110.883 21.9414C110.93 22.0117 110.965 22.1172 110.988 22.2578C111.012 22.3984 111.012 22.5859 110.988 22.8203C110.988 23.0312 111 23.2188 111.023 23.3828C111.047 23.5234 111.047 23.6289 111.023 23.6992C111 23.7695 110.988 23.8516 110.988 23.9453L111.094 24.4375C111.094 24.5781 111.082 24.7188 111.059 24.8594C111.035 25 111.035 25.1523 111.059 25.3164C111.082 25.4805 111.129 25.6914 111.199 25.9492C111.27 26.1836 111.316 26.418 111.34 26.6523C111.387 26.8633 111.41 27.0508 111.41 27.2148V27.6719C111.41 27.8125 111.375 28.2344 111.305 28.9375L111.41 29.3945C111.363 29.6523 111.34 30.0977 111.34 30.7305L111.27 31.1523C111.316 31.2461 111.316 31.3398 111.27 31.4336C111.246 31.5273 111.234 31.6445 111.234 31.7852C111.234 31.9258 111.281 32.0547 111.375 32.1719C111.492 32.2891 111.504 32.4414 111.41 32.6289C111.738 32.7695 111.996 32.8047 112.184 32.7344C112.582 32.6172 112.91 32.5938 113.168 32.6641C113.449 32.7344 113.637 32.7812 113.73 32.8047C113.848 32.8281 113.93 32.8633 113.977 32.9102C114.094 33.1914 114.164 33.3906 114.188 33.5078C114.234 33.6016 114.176 33.6953 114.012 33.7891C113.848 33.8828 113.754 33.9883 113.73 34.1055C113.098 34.2227 112.547 34.2812 112.078 34.2812C111.609 34.2812 111.141 34.4102 110.672 34.668ZM104.52 26.8633L104.133 26.7227C103.734 27.0273 103.336 27.2383 102.938 27.3555C102.82 27.4727 102.75 27.625 102.727 27.8125C102.703 28 102.656 28.2227 102.586 28.4805C102.539 28.7383 102.527 28.9023 102.551 28.9727C102.691 29.2305 102.762 29.3945 102.762 29.4648C102.762 29.5352 102.797 29.6523 102.867 29.8164C102.961 29.9805 103.02 30.1094 103.043 30.2031C103.23 30.2969 103.371 30.4141 103.465 30.5547C103.582 30.6953 103.711 30.7891 103.852 30.8359C104.016 30.8828 104.156 30.8828 104.273 30.8359C104.391 30.7891 104.496 30.8125 104.59 30.9062C104.684 30.8828 104.812 30.8828 104.977 30.9062C105.164 30.9062 105.34 30.8945 105.504 30.8711C105.645 30.7305 105.809 30.6719 105.996 30.6953C106.184 30.6953 106.348 30.6484 106.488 30.5547C106.816 30.25 107.004 30.0508 107.051 29.957C107.121 29.8633 107.25 29.7695 107.438 29.6758C107.508 29.0898 107.543 28.5859 107.543 28.1641C107.402 28 107.262 27.8711 107.121 27.7773C107.004 27.6836 106.922 27.5195 106.875 27.2852C106.781 27.2148 106.688 27.168 106.594 27.1445C106.5 27.0977 106.43 27.0273 106.383 26.9336C106.266 26.9336 106.195 26.9453 106.172 26.9688C106.172 26.9688 106.09 26.9336 105.926 26.8633C105.762 26.793 105.293 26.793 104.52 26.8633ZM124.559 34.668L123.047 34.5977C122.953 34.5977 122.812 34.5156 122.625 34.3516C122.438 34.1875 122.309 34.1172 122.238 34.1406L121.781 33.4727C121.688 33.1914 121.641 32.9219 121.641 32.6641V31.9258C121.523 31.8555 121.43 31.75 121.359 31.6094C120.914 31.7031 120.633 31.8086 120.516 31.9258C120.422 32.043 120.34 32.125 120.27 32.1719C119.918 32.1719 119.59 32.3242 119.285 32.6289C119.168 32.5352 119.039 32.5234 118.898 32.5938C118.758 32.6406 118.605 32.6523 118.441 32.6289C118.301 32.6055 118.195 32.582 118.125 32.5586C118.055 32.5117 117.961 32.4648 117.844 32.418C117.703 32.4648 117.574 32.4766 117.457 32.4531C117.34 32.4297 117.188 32.4297 117 32.4531C116.859 32.2891 116.543 32.1133 116.051 31.9258C115.723 31.7148 115.359 31.5625 114.961 31.4688C114.492 30.7656 114.117 30.168 113.836 29.6758C113.906 29.4648 113.918 29.2422 113.871 29.0078C113.801 28.6094 113.883 28.2344 114.117 27.8828C114.281 27.4609 114.492 27.1328 114.75 26.8984C115.031 26.6406 115.23 26.4648 115.348 26.3711C115.465 26.2539 115.594 26.1602 115.734 26.0898C115.875 25.9961 116.004 25.8672 116.121 25.7031C116.262 25.5156 116.426 25.3984 116.613 25.3516C116.824 25.3047 117.012 25.2812 117.176 25.2812C117.34 25.2578 117.527 25.2227 117.738 25.1758C117.949 25.1289 118.09 25.0938 118.16 25.0703C118.418 24.9766 118.816 25.0352 119.355 25.2461C119.66 25.1992 119.93 25.1992 120.164 25.2461C120.422 25.2695 120.715 25.2695 121.043 25.2461C121.23 25.1289 121.312 25 121.289 24.8594C121.289 24.7188 121.289 24.5547 121.289 24.3672C121.289 24.1797 121.277 24.0391 121.254 23.9453L121.113 23.4883C121.16 22.8555 121.125 22.3984 121.008 22.1172C121.055 21.9062 121.066 21.7891 121.043 21.7656C121.02 21.7422 121.008 21.6953 121.008 21.625C121.008 21.5312 120.996 21.4023 120.973 21.2383C120.949 21.0742 120.914 20.8867 120.867 20.6758C120.844 20.4648 120.797 20.1602 120.727 19.7617C120.68 19.3398 120.621 19.0234 120.551 18.8125C120.48 18.5781 120.422 18.4023 120.375 18.2852C120.352 18.168 120.316 18.0508 120.27 17.9336C120.223 17.8164 120.188 17.7109 120.164 17.6172C120.164 17.5 120.117 17.3711 120.023 17.2305C119.953 17.0898 119.895 16.9844 119.848 16.9141C119.801 16.8203 119.73 16.7383 119.637 16.668C119.59 16.5977 119.555 16.5039 119.531 16.3867C119.531 16.2695 119.496 16.1875 119.426 16.1406C119.168 16.0938 118.91 16.0703 118.652 16.0703C118.418 16.0703 118.242 16.1523 118.125 16.3164C117.68 16.3164 117.363 16.375 117.176 16.4922C117.059 16.6562 117.023 16.8203 117.07 16.9844C117.117 17.1484 117.129 17.3008 117.105 17.4414C117.082 17.5586 117.047 17.6641 117 17.7578C116.977 17.8516 116.953 17.9453 116.93 18.0391C117 18.2734 117.023 18.4609 117 18.6016C117 18.7422 117.059 18.9297 117.176 19.1641C117.316 19.3984 117.422 19.5508 117.492 19.6211C117.562 19.6914 117.656 19.75 117.773 19.7969C117.914 19.8438 118.02 19.8672 118.09 19.8672C118.184 19.8672 118.312 19.9258 118.477 20.043C118.641 20.1602 118.746 20.4414 118.793 20.8867C118.652 21.1211 118.383 21.2383 117.984 21.2383C117.586 21.2383 117.27 21.1562 117.035 20.9922C116.941 20.9922 116.871 21.0156 116.824 21.0625C116.777 21.0859 116.684 21.0859 116.543 21.0625C116.426 21.0156 116.32 20.9453 116.227 20.8516C116.156 20.7578 116.027 20.7109 115.84 20.7109C115.793 20.5469 115.711 20.418 115.594 20.3242C115.5 20.207 115.406 20.0898 115.312 19.9727C115.242 19.7383 115.184 19.6211 115.137 19.6211C115.113 19.6211 115.102 19.6094 115.102 19.5859C114.797 19.1406 114.691 18.6836 114.785 18.2148C114.785 18.1211 114.809 18.0273 114.855 17.9336C114.902 17.8164 114.949 17.6992 114.996 17.582C115.043 17.4414 115.066 17.3125 115.066 17.1953C115.066 17.0547 115.09 16.9375 115.137 16.8438C115.184 16.7266 115.242 16.6328 115.312 16.5625C115.406 16.4922 115.5 16.4219 115.594 16.3516C115.688 16.2578 115.77 16.1758 115.84 16.1055C115.934 16.0117 116.039 15.9414 116.156 15.8945C116.203 15.7773 116.25 15.6719 116.297 15.5781C116.367 15.4609 116.426 15.332 116.473 15.1914C116.566 15.1445 116.648 15.1094 116.719 15.0859C116.789 15.0625 116.848 15.0156 116.895 14.9453C117.105 14.9688 117.316 14.9453 117.527 14.875C117.738 14.7812 117.938 14.7344 118.125 14.7344C118.336 14.7344 118.512 14.7109 118.652 14.6641H119.145C119.309 14.6641 119.461 14.6875 119.602 14.7344C119.742 14.7812 119.906 14.7812 120.094 14.7344C120.211 14.7578 120.328 14.793 120.445 14.8398C120.586 14.8867 120.727 14.875 120.867 14.8047C120.984 14.9453 121.195 15.0859 121.5 15.2266C121.828 15.3438 122.074 15.543 122.238 15.8242C122.426 16.1055 122.566 16.3047 122.66 16.4219C122.754 16.5156 122.836 16.6445 122.906 16.8086C122.977 16.9492 123.047 17.0898 123.117 17.2305C123.211 17.3477 123.293 17.4766 123.363 17.6172C123.434 17.7344 123.516 17.8633 123.609 18.0039C123.703 18.1445 123.773 18.2852 123.82 18.4258C123.891 18.5664 123.984 18.6836 124.102 18.7773C124.031 19.0352 124.113 19.3398 124.348 19.6914C124.371 19.7852 124.383 19.8672 124.383 19.9375C124.406 20.0078 124.441 20.125 124.488 20.2891C124.535 20.4297 124.57 20.6406 124.594 20.9219C124.617 21.1797 124.641 21.4023 124.664 21.5898C124.711 21.7539 124.746 21.8711 124.77 21.9414C124.816 22.0117 124.852 22.1172 124.875 22.2578C124.898 22.3984 124.898 22.5859 124.875 22.8203C124.875 23.0312 124.887 23.2188 124.91 23.3828C124.934 23.5234 124.934 23.6289 124.91 23.6992C124.887 23.7695 124.875 23.8516 124.875 23.9453L124.98 24.4375C124.98 24.5781 124.969 24.7188 124.945 24.8594C124.922 25 124.922 25.1523 124.945 25.3164C124.969 25.4805 125.016 25.6914 125.086 25.9492C125.156 26.1836 125.203 26.418 125.227 26.6523C125.273 26.8633 125.297 27.0508 125.297 27.2148V27.6719C125.297 27.8125 125.262 28.2344 125.191 28.9375L125.297 29.3945C125.25 29.6523 125.227 30.0977 125.227 30.7305L125.156 31.1523C125.203 31.2461 125.203 31.3398 125.156 31.4336C125.133 31.5273 125.121 31.6445 125.121 31.7852C125.121 31.9258 125.168 32.0547 125.262 32.1719C125.379 32.2891 125.391 32.4414 125.297 32.6289C125.625 32.7695 125.883 32.8047 126.07 32.7344C126.469 32.6172 126.797 32.5938 127.055 32.6641C127.336 32.7344 127.523 32.7812 127.617 32.8047C127.734 32.8281 127.816 32.8633 127.863 32.9102C127.98 33.1914 128.051 33.3906 128.074 33.5078C128.121 33.6016 128.062 33.6953 127.898 33.7891C127.734 33.8828 127.641 33.9883 127.617 34.1055C126.984 34.2227 126.434 34.2812 125.965 34.2812C125.496 34.2812 125.027 34.4102 124.559 34.668ZM118.406 26.8633L118.02 26.7227C117.621 27.0273 117.223 27.2383 116.824 27.3555C116.707 27.4727 116.637 27.625 116.613 27.8125C116.59 28 116.543 28.2227 116.473 28.4805C116.426 28.7383 116.414 28.9023 116.438 28.9727C116.578 29.2305 116.648 29.3945 116.648 29.4648C116.648 29.5352 116.684 29.6523 116.754 29.8164C116.848 29.9805 116.906 30.1094 116.93 30.2031C117.117 30.2969 117.258 30.4141 117.352 30.5547C117.469 30.6953 117.598 30.7891 117.738 30.8359C117.902 30.8828 118.043 30.8828 118.16 30.8359C118.277 30.7891 118.383 30.8125 118.477 30.9062C118.57 30.8828 118.699 30.8828 118.863 30.9062C119.051 30.9062 119.227 30.8945 119.391 30.8711C119.531 30.7305 119.695 30.6719 119.883 30.6953C120.07 30.6953 120.234 30.6484 120.375 30.5547C120.703 30.25 120.891 30.0508 120.938 29.957C121.008 29.8633 121.137 29.7695 121.324 29.6758C121.395 29.0898 121.43 28.5859 121.43 28.1641C121.289 28 121.148 27.8711 121.008 27.7773C120.891 27.6836 120.809 27.5195 120.762 27.2852C120.668 27.2148 120.574 27.168 120.48 27.1445C120.387 27.0977 120.316 27.0273 120.27 26.9336C120.152 26.9336 120.082 26.9453 120.059 26.9688C120.059 26.9688 119.977 26.9336 119.812 26.8633C119.648 26.793 119.18 26.793 118.406 26.8633ZM129.094 21.0273L128.988 17.3359V16.9492L128.848 16.5273L128.953 16.0352C128.977 15.9414 129 15.8594 129.023 15.7891C129.07 15.6953 129.094 15.6016 129.094 15.5078L129.059 15.0156L129.129 13.9609L129.094 13.4688L129.164 13.082L129.059 12.3789L129.129 11.7109L129.023 11.3242C129.023 11.1367 129.07 10.8789 129.164 10.5508C129.281 10.1992 129.328 9.87109 129.305 9.56641L129.199 8.96875C129.199 8.85156 129.211 8.75781 129.234 8.6875C129.281 8.59375 129.316 8.44141 129.34 8.23047C129.387 8.01953 129.41 7.73828 129.41 7.38672C129.41 7.01172 129.398 6.68359 129.375 6.40234C129.352 6.09766 129.352 5.91016 129.375 5.83984C129.422 5.76953 129.445 5.71094 129.445 5.66406L129.41 4.89062L129.48 4.22266C129.551 4.08203 129.562 3.90625 129.516 3.69531C129.492 3.48438 129.492 3.28516 129.516 3.09766C129.398 3.00391 129.27 2.98047 129.129 3.02734C129.012 3.07422 128.859 3.0625 128.672 2.99219C128.508 2.89844 128.402 2.74609 128.355 2.53516C128.309 2.30078 128.391 2.11328 128.602 1.97266C128.836 1.80859 129.012 1.73828 129.129 1.76172C129.246 1.78516 129.363 1.78516 129.48 1.76172C129.598 1.71484 129.703 1.65625 129.797 1.58594C130.031 1.44531 130.312 1.41016 130.641 1.48047C130.969 1.52734 131.332 1.43359 131.73 1.19922C131.848 1.17578 131.93 1.1875 131.977 1.23438C132.023 1.25781 132.082 1.26953 132.152 1.26953C132.223 1.24609 132.305 1.19922 132.398 1.12891C132.492 1.03516 132.598 0.964844 132.715 0.917969C132.855 0.847656 133.008 0.824219 133.172 0.847656C133.359 0.847656 133.617 0.835937 133.945 0.8125C134.297 0.789063 134.566 0.765625 134.754 0.742188C134.941 0.695312 135.105 0.765625 135.246 0.953125C135.387 1.53906 135.188 2.10156 134.648 2.64062C134.297 2.73437 134.016 2.85156 133.805 2.99219C133.055 3.50781 132.773 3.90625 132.961 4.1875C133.008 4.25781 133.043 4.33984 133.066 4.43359C132.996 4.66797 132.973 4.83203 132.996 4.92578C133.043 4.99609 133.02 5.07813 132.926 5.17188C133.137 5.6875 133.207 6.12109 133.137 6.47266C133.09 6.80078 133.055 7.08203 133.031 7.31641L133.066 8.40625C133.09 8.5 133.137 8.65234 133.207 8.86328L133.172 9.42578C133.289 9.77734 133.348 10 133.348 10.0938C133.348 10.1875 133.312 10.3281 133.242 10.5156C133.172 10.7031 133.113 10.9023 133.066 11.1133C133.02 11.3008 132.996 11.5352 132.996 11.8164C132.996 12.0977 132.984 12.4023 132.961 12.7305L132.891 13.4336L133.102 15.7891C133.031 16.8672 132.973 17.5 132.926 17.6875C132.996 17.875 133.031 18.0742 133.031 18.2852C133.031 18.4961 133.008 18.7891 132.961 19.1641C132.938 19.5391 132.984 19.8555 133.102 20.1133C132.984 20.3945 132.984 20.9219 133.102 21.6953C133.125 21.8594 133.219 21.9883 133.383 22.082C133.477 22.1055 133.535 22.1523 133.559 22.2227C133.605 22.293 133.699 22.3047 133.84 22.2578C133.98 22.2812 134.039 22.2227 134.016 22.082C134.016 21.9414 134.074 21.8594 134.191 21.8359C134.262 21.7891 134.309 21.7539 134.332 21.7305C134.379 21.6836 134.461 21.6719 134.578 21.6953C134.695 21.6484 134.789 21.5664 134.859 21.4492C134.953 21.332 135.105 21.2734 135.316 21.2734C135.457 21.0625 135.527 20.9453 135.527 20.9219C135.738 20.7812 135.867 20.6758 135.914 20.6055C135.984 20.5117 136.055 20.4414 136.125 20.3945C136.195 20.3242 136.277 20.2656 136.371 20.2188C136.465 20.1484 136.559 20.0781 136.652 20.0078C136.816 19.7734 136.91 19.6562 136.934 19.6562C136.98 19.6562 137.051 19.6211 137.145 19.5508C137.238 19.457 137.332 19.3398 137.426 19.1992C137.543 19.0352 137.66 18.8945 137.777 18.7773C137.895 18.707 138.023 18.6367 138.164 18.5664C138.328 18.4961 138.469 18.3906 138.586 18.25C138.703 18.1094 138.82 17.9922 138.938 17.8984C139.078 17.8047 139.242 17.6875 139.43 17.5469C139.617 17.4062 139.758 17.2305 139.852 17.0195C139.781 16.832 139.652 16.7617 139.465 16.8086C139.277 16.8555 139.113 16.8555 138.973 16.8086C138.832 16.7383 138.715 16.6562 138.621 16.5625C138.527 16.4453 138.422 16.3398 138.305 16.2461C138.375 16.082 138.387 15.9648 138.34 15.8945C138.293 15.8242 138.293 15.7539 138.34 15.6836C138.434 15.4258 138.762 15.2266 139.324 15.0859C139.441 15.1328 139.535 15.2148 139.605 15.332C139.676 15.4492 139.758 15.5547 139.852 15.6484C140.203 15.7891 140.695 15.8594 141.328 15.8594C141.492 15.9062 141.656 15.9297 141.82 15.9297C141.961 16.0703 142.102 16.1406 142.242 16.1406L143.016 16.2812L143.578 16.2461C143.836 16.2227 144.035 16.2227 144.176 16.2461C144.34 16.2695 144.48 16.3984 144.598 16.6328C144.715 16.8672 144.762 17.0781 144.738 17.2656C144.668 17.4062 144.551 17.5117 144.387 17.582C144.246 17.6523 144.141 17.6875 144.07 17.6875C144.023 17.6641 143.895 17.6758 143.684 17.7227C143.496 17.7695 143.344 17.7578 143.227 17.6875C143.109 17.6172 142.992 17.582 142.875 17.582C142.805 17.5352 142.723 17.5469 142.629 17.6172C142.559 17.6641 142.465 17.6992 142.348 17.7227C142.23 17.7227 142.16 17.6992 142.137 17.6523C142.113 17.582 141.984 17.5703 141.75 17.6172C141.305 17.6875 140.953 18.0391 140.695 18.6719C140.555 18.6953 140.426 18.7422 140.309 18.8125C140.215 18.8594 140.109 18.9062 139.992 18.9531C139.828 19.1875 139.629 19.3164 139.395 19.3398C139.277 19.4805 139.137 19.6094 138.973 19.7266C138.809 19.8438 138.703 20.0195 138.656 20.2539C138.234 20.4648 137.883 20.7461 137.602 21.0977C137.602 21.2617 137.66 21.3906 137.777 21.4844C137.918 21.5781 138.035 21.7656 138.129 22.0469C138.246 22.3047 138.398 22.5977 138.586 22.9258C138.633 23.1133 138.703 23.2656 138.797 23.3828C138.891 23.5 138.938 23.6641 138.938 23.875C139.055 24.0625 139.148 24.2734 139.219 24.5078C139.289 24.7188 139.371 24.918 139.465 25.1055C139.582 25.2695 139.629 25.4336 139.605 25.5977C139.652 25.7852 139.723 25.9492 139.816 26.0898C139.934 26.207 139.992 26.3828 139.992 26.6172C140.133 26.6875 140.227 26.8164 140.273 27.0039C140.32 27.168 140.402 27.3086 140.52 27.4258C140.59 27.707 140.66 27.9062 140.73 28.0234C140.824 28.1172 140.918 28.2812 141.012 28.5156C141.129 28.75 141.176 28.8906 141.152 28.9375C141.152 28.9609 141.164 29.0078 141.188 29.0781C141.234 29.125 141.281 29.1719 141.328 29.2188C141.375 29.2656 141.41 29.3242 141.434 29.3945C141.48 29.4648 141.492 29.5352 141.469 29.6055C141.445 29.6758 141.445 29.7578 141.469 29.8516C141.516 29.9219 141.562 30.0156 141.609 30.1328C141.68 30.2266 141.75 30.3906 141.82 30.625C141.914 30.8359 141.984 30.9766 142.031 31.0469C142.219 31.3047 142.324 31.5273 142.348 31.7148C142.371 31.9023 142.453 32.0664 142.594 32.207C142.734 32.3477 142.852 32.5469 142.945 32.8047C143.062 33.0391 143.133 33.1562 143.156 33.1562C143.203 33.1562 143.238 33.2734 143.262 33.5078C143.309 33.7188 143.59 34.082 144.105 34.5977C144.293 34.8789 144.445 35.0664 144.562 35.1602C144.68 35.2773 144.738 35.3594 144.738 35.4062C144.762 35.4531 144.82 35.5 144.914 35.5469C145.195 35.5938 145.383 35.6406 145.477 35.6875C145.57 35.7344 145.664 35.7578 145.758 35.7578C146.039 35.6406 146.227 35.5703 146.32 35.5469C146.414 35.5234 146.508 35.4531 146.602 35.3359C146.719 35.2422 146.836 35.1602 146.953 35.0898C147.117 34.9492 147.258 34.75 147.375 34.4922C147.516 34.2344 147.621 34.0586 147.691 33.9648C147.762 33.8711 147.797 33.7891 147.797 33.7188C147.891 33.4609 147.832 33.2031 147.621 32.9453C147.434 32.6875 147.293 32.5469 147.199 32.5234C147.129 32.4766 147.012 32.4414 146.848 32.418C146.707 32.3945 146.578 32.3359 146.461 32.2422C146.203 32.2891 146.004 32.418 145.863 32.6289C145.746 32.8164 145.629 33.0391 145.512 33.2969C145.371 33.25 145.266 33.2617 145.195 33.332C145.148 33.4023 145.078 33.4258 144.984 33.4023C144.891 33.3789 144.82 33.332 144.773 33.2617C144.75 33.1914 144.668 33.0859 144.527 32.9453C144.387 32.8047 144.34 32.5469 144.387 32.1719C144.434 31.7969 144.574 31.5156 144.809 31.3281C145.066 31.1172 145.207 30.918 145.23 30.7305C145.512 30.8008 145.723 30.7891 145.863 30.6953C146.027 30.6016 146.156 30.5547 146.25 30.5547C147 30.5547 147.445 30.6719 147.586 30.9062C147.727 31.1406 147.891 31.3633 148.078 31.5742C148.289 31.7852 148.441 31.9492 148.535 32.0664C148.652 32.1836 148.793 32.2891 148.957 32.3828C149.098 32.7109 149.18 33.0508 149.203 33.4023C149.227 33.7305 149.215 33.9531 149.168 34.0703C149.145 34.1875 149.098 34.3398 149.027 34.5273C148.957 34.7148 148.91 34.8789 148.887 35.0195C148.863 35.1602 148.805 35.2773 148.711 35.3711C148.617 35.4883 148.5 35.6172 148.359 35.7578C148.219 35.8984 148.102 36.0156 148.008 36.1094C147.938 36.2266 147.891 36.3086 147.867 36.3555C147.867 36.4258 147.844 36.4844 147.797 36.5312C147.68 36.5781 147.562 36.6133 147.445 36.6367C147.328 36.6836 147.188 36.7422 147.023 36.8125C146.859 36.9062 146.695 37.0234 146.531 37.1641C146.367 37.3047 146.227 37.3867 146.109 37.4102C145.992 37.457 145.875 37.4688 145.758 37.4453C145.664 37.4219 145.559 37.4102 145.441 37.4102C145.348 37.4336 145.254 37.457 145.16 37.4805C145.066 37.5039 144.973 37.5039 144.879 37.4805C144.785 37.457 144.68 37.3867 144.562 37.2695C144.469 37.1758 144.352 37.0938 144.211 37.0234C143.836 37.0234 143.555 36.9297 143.367 36.7422C143.203 36.5781 142.969 36.4727 142.664 36.4258C142.617 36.3086 142.57 36.2031 142.523 36.1094C142.477 36.0391 142.43 35.957 142.383 35.8633C142.266 35.8164 142.184 35.7461 142.137 35.6523C142.09 35.5586 142.02 35.4766 141.926 35.4062C141.738 35.3359 141.633 35.2656 141.609 35.1953C141.609 35.1484 141.586 35.1133 141.539 35.0898C141.375 34.8086 141.223 34.6445 141.082 34.5977C140.824 34.2695 140.637 34.0117 140.52 33.8242C140.402 33.6367 140.262 33.5195 140.098 33.4727C139.98 33.0039 139.793 32.7109 139.535 32.5938C139.559 32.3359 139.43 32.125 139.148 31.9609C139.102 31.6328 138.996 31.293 138.832 30.9414C138.645 30.7305 138.551 30.6133 138.551 30.5898C138.551 30.5664 138.504 30.4961 138.41 30.3789C138.34 30.2617 138.27 30.0859 138.199 29.8516C138.152 29.6172 138.035 29.3711 137.848 29.1133C137.754 28.9258 137.707 28.8086 137.707 28.7617C137.707 28.7148 137.695 28.668 137.672 28.6211C137.555 28.5273 137.496 28.457 137.496 28.4102C137.496 28.3633 137.461 28.2812 137.391 28.1641L137.145 27.5664C137.027 27.3086 136.969 27.1328 136.969 27.0391C136.992 26.9453 136.934 26.875 136.793 26.8281C136.723 26.4766 136.688 26.2539 136.688 26.1602C136.711 26.0664 136.699 25.9492 136.652 25.8086C136.535 25.668 136.488 25.5742 136.512 25.5273C136.535 25.4805 136.5 25.3867 136.406 25.2461C136.336 25.082 136.277 24.9648 136.23 24.8945C136.207 24.8242 136.195 24.7539 136.195 24.6836C136.195 24.6133 136.172 24.5312 136.125 24.4375C136.102 24.3203 136.043 24.2148 135.949 24.1211C135.879 24.0039 135.844 23.8867 135.844 23.7695C135.469 23.3945 135.117 23.3008 134.789 23.4883C134.461 23.6758 134.297 23.875 134.297 24.0859C134.297 24.2734 134.262 24.4375 134.191 24.5781C134.145 24.7188 134.121 24.8125 134.121 24.8594C134.145 24.8828 134.109 24.9648 134.016 25.1055C133.922 25.2461 133.875 25.3398 133.875 25.3867C133.922 25.5273 133.816 25.7266 133.559 25.9844C133.582 26.1719 133.547 26.3359 133.453 26.4766C133.359 26.5938 133.289 26.7461 133.242 26.9336L133.312 27.5664C133.312 27.8242 133.301 28.0938 133.277 28.375C133.254 28.6562 133.266 28.9141 133.312 29.1484C133.359 29.3594 133.418 29.5352 133.488 29.6758C133.559 29.8164 133.57 30.0273 133.523 30.3086C133.359 30.7539 133.289 31.082 133.312 31.293C133.336 31.4805 133.359 31.6797 133.383 31.8906C133.664 32.0547 133.922 32.0547 134.156 31.8906C134.25 31.9609 134.332 32.0078 134.402 32.0312C134.496 32.0547 134.578 32.1016 134.648 32.1719C134.719 32.2188 134.801 32.2656 134.895 32.3125C134.988 32.3594 135.059 32.418 135.105 32.4883C135.082 32.6992 135.059 32.875 135.035 33.0156C135.035 33.1562 134.953 33.2852 134.789 33.4023C134.602 33.4492 134.496 33.4961 134.473 33.543C134.449 33.5664 134.402 33.5898 134.332 33.6133C134.262 33.6367 134.156 33.6367 134.016 33.6133C133.898 33.5664 133.734 33.5547 133.523 33.5781C133.336 33.6016 133.137 33.6602 132.926 33.7539C132.738 33.8477 132.562 33.8594 132.398 33.7891C132.305 33.7891 132.234 33.8125 132.188 33.8594C132.164 33.9062 132.117 33.9531 132.047 34C131.953 34 131.883 33.9883 131.836 33.9648C131.789 33.9414 131.695 33.9531 131.555 34C131.438 34.0703 131.355 34.0938 131.309 34.0703C131.262 34.0469 131.191 34.0352 131.098 34.0352C131.004 34.0352 130.875 34.0586 130.711 34.1055C130.547 34.1523 130.371 34.1406 130.184 34.0703C130.066 34.1172 129.949 34.1875 129.832 34.2812C129.715 34.375 129.457 34.457 129.059 34.5273C128.66 34.5977 128.227 34.4922 127.758 34.2109C127.805 33.8828 127.852 33.625 127.898 33.4375C128.016 33.3672 128.133 33.3086 128.25 33.2617C128.367 33.2148 128.473 33.1445 128.566 33.0508C128.707 33.0508 128.789 33.0391 128.812 33.0156C128.859 32.9922 128.941 33.0039 129.059 33.0508C129.223 32.9336 129.41 32.875 129.621 32.875C129.832 32.8516 129.996 32.7461 130.113 32.5586C130.066 32.3008 129.996 32.043 129.902 31.7852C129.809 31.5039 129.785 31.1758 129.832 30.8008C129.738 30.0508 129.68 29.2656 129.656 28.4453C129.633 27.6016 129.586 27.0508 129.516 26.793C129.609 26.5117 129.645 26.3242 129.621 26.2305C129.598 26.1133 129.586 25.9141 129.586 25.6328V25.2461L129.445 24.543C129.422 24.4727 129.422 24.3906 129.445 24.2969C129.492 24.2031 129.516 24.0977 129.516 23.9805C129.516 23.8398 129.48 23.6641 129.41 23.4531C129.363 23.2422 129.352 23.1133 129.375 23.0664C129.398 23.0195 129.352 22.7852 129.234 22.3633C129.141 21.9414 129.094 21.4961 129.094 21.0273ZM145.055 44.9336L144.457 45.1445C144.363 45.1445 144.223 45.1914 144.035 45.2852C143.848 45.3789 143.66 45.4141 143.473 45.3906C142.91 45.3672 142.605 45.1914 142.559 44.8633C142.16 44.7695 141.855 44.6055 141.645 44.3711C141.527 44.3008 141.445 44.207 141.398 44.0898C141.352 43.9727 141.27 43.8789 141.152 43.8086C141.035 43.7383 140.953 43.6445 140.906 43.5273C140.859 43.4336 140.766 43.3633 140.625 43.3164C140.648 43.0586 140.578 42.8125 140.414 42.5781C140.227 42.3672 140.109 42.0039 140.062 41.4883C139.992 40.9961 140.051 40.5859 140.238 40.2578C140.402 39.9297 140.508 39.6602 140.555 39.4492C140.578 39.2617 140.672 39.1328 140.836 39.0625C140.977 39.0156 141.023 38.8516 140.977 38.5703C141.234 38.3828 141.469 38.1953 141.68 38.0078C141.891 37.8438 142.266 37.6914 142.805 37.5508C143.32 37.4102 143.66 37.4102 143.824 37.5508C143.988 37.6914 144.176 37.7617 144.387 37.7617C144.598 37.7617 144.762 37.7852 144.879 37.832C145.02 37.9961 145.172 38.125 145.336 38.2188C145.523 38.3359 145.641 38.418 145.688 38.4648C145.758 38.582 145.805 38.7109 145.828 38.8516C145.852 38.9922 145.887 39.1328 145.934 39.2734C145.98 39.4141 146.027 39.543 146.074 39.6602C146.145 39.7773 146.18 39.8945 146.18 40.0117C146.133 40.082 146.074 40.1406 146.004 40.1875C145.934 40.2344 145.863 40.2812 145.793 40.3281C145.723 40.3984 145.664 40.4688 145.617 40.5391C145.594 40.6094 145.5 40.6562 145.336 40.6797C145.195 40.7031 145.09 40.6797 145.02 40.6094C144.949 40.5391 144.82 40.5039 144.633 40.5039C144.305 40.1055 144.035 39.6133 143.824 39.0273C143.332 38.9805 143.004 39.0625 142.84 39.2734C142.676 39.4844 142.559 39.6602 142.488 39.8008C142.395 39.9414 142.266 40.082 142.102 40.2227C142.055 40.6914 141.949 41.1016 141.785 41.4531C141.809 41.6406 141.867 41.793 141.961 41.9102C142.055 42.0273 142.113 42.168 142.137 42.332C142.137 42.5195 142.195 42.6016 142.312 42.5781C142.43 42.5781 142.523 42.625 142.594 42.7188C142.664 42.8125 142.699 42.9062 142.699 43C142.676 43.0938 142.688 43.1992 142.734 43.3164C143.086 43.2461 143.309 43.2461 143.402 43.3164C143.52 43.3867 143.602 43.4453 143.648 43.4922C143.719 43.5625 143.824 43.6211 143.965 43.668C144.152 43.668 144.316 43.6328 144.457 43.5625C144.598 43.5156 144.785 43.4688 145.02 43.4219C145.254 43.375 145.43 43.3867 145.547 43.457C145.688 43.5273 145.863 43.4922 146.074 43.3516C146.309 43.2109 146.426 43.1055 146.426 43.0352C146.66 42.9648 146.812 42.8711 146.883 42.7539C146.977 42.6602 147.059 42.5781 147.129 42.5078C147.223 42.4375 147.293 42.3906 147.34 42.3672C147.387 42.3438 147.469 42.2734 147.586 42.1562C147.703 42.0391 147.809 41.9805 147.902 41.9805C148.16 41.6289 148.312 41.4297 148.359 41.3828C148.406 41.3359 148.43 41.2891 148.43 41.2422C148.453 41.2188 148.453 41.1836 148.43 41.1367C148.43 41.0898 148.453 40.9961 148.5 40.8555C148.547 40.7383 148.605 40.6211 148.676 40.5039C148.77 40.4102 148.875 40.2812 148.992 40.1172C149.109 39.9531 149.25 39.8008 149.414 39.6602C149.461 39.4258 149.52 39.2266 149.59 39.0625C149.684 38.9453 149.777 38.8516 149.871 38.7812C149.965 38.7344 150.035 38.6172 150.082 38.4297C150.152 38.2656 150.199 38.125 150.223 38.0078C150.293 37.6797 150.387 37.4219 150.504 37.2344C150.621 37.0469 150.762 36.6953 150.926 36.1797C151.113 35.6641 151.254 35.3125 151.348 35.125C151.465 34.9375 151.523 34.75 151.523 34.5625C151.523 34.3984 151.453 34.2344 151.312 34.0703C150.797 33.5312 150.586 33.0625 150.68 32.6641C150.539 32.4766 150.434 32.2539 150.363 31.9961C150.293 31.7383 150.164 31.5273 149.977 31.3633C150 31.1992 149.965 31.0586 149.871 30.9414C149.777 30.8242 149.684 30.6484 149.59 30.4141C149.496 30.1562 149.402 29.9688 149.309 29.8516C149.215 29.7109 149.145 29.5703 149.098 29.4297C149.074 29.2656 149.027 29.1602 148.957 29.1133C148.91 29.043 148.863 28.9727 148.816 28.9023C148.84 28.7617 148.816 28.5859 148.746 28.375C148.629 28.2344 148.535 28.0703 148.465 27.8828C148.418 27.6719 148.348 27.4492 148.254 27.2148C148.066 27.0508 147.973 26.9453 147.973 26.8984C148.02 26.7109 147.902 26.5234 147.621 26.3359C147.457 25.6562 147.27 25.1641 147.059 24.8594C147.082 24.625 147.023 24.4492 146.883 24.332C146.742 24.2148 146.695 24.0273 146.742 23.7695C146.648 23.7227 146.543 23.5938 146.426 23.3828C146.309 23.1484 146.238 23.0078 146.215 22.9609C146.098 22.8203 145.898 22.5039 145.617 22.0117C145.5 21.8945 145.43 21.7891 145.406 21.6953C145.406 21.6016 145.301 21.4727 145.09 21.3086C144.902 21.1445 144.797 20.9688 144.773 20.7812C144.492 20.7344 144.211 20.7695 143.93 20.8867C143.672 20.9805 143.473 21.0273 143.332 21.0273C143.215 21.0039 143.074 20.9102 142.91 20.7461C142.887 20.582 142.898 20.4531 142.945 20.3594C142.969 20.2422 142.992 20.125 143.016 20.0078C143.508 19.75 143.836 19.6094 144 19.5859C144.281 19.5859 144.797 19.457 145.547 19.1992C145.828 19.2695 146.156 19.2344 146.531 19.0938C146.906 18.9297 147.188 18.8477 147.375 18.8477C147.562 18.8242 147.773 18.8359 148.008 18.8828C148.266 18.9297 148.5 18.9062 148.711 18.8125C148.945 18.6953 149.145 18.6367 149.309 18.6367C149.473 18.6367 149.637 18.6602 149.801 18.707C150.129 19.1289 150.152 19.4453 149.871 19.6562C149.59 19.8438 149.344 19.9375 149.133 19.9375C148.945 19.9141 148.805 19.9492 148.711 20.043C148.664 20.1602 148.676 20.2773 148.746 20.3945C148.816 20.4883 148.781 20.5469 148.641 20.5703C148.992 21.1328 149.203 21.5898 149.273 21.9414C149.367 22.293 149.473 22.5039 149.59 22.5742C149.707 22.6445 149.801 22.75 149.871 22.8906C149.801 23.1484 149.859 23.3711 150.047 23.5586C150.258 23.7461 150.387 23.9219 150.434 24.0859C150.48 24.25 150.492 24.4023 150.469 24.543C150.469 24.6836 150.48 24.8125 150.504 24.9297C150.668 25.3047 150.797 25.6094 150.891 25.8438C150.984 26.0781 151.102 26.2891 151.242 26.4766C151.383 26.6641 151.441 26.7695 151.418 26.793C151.418 26.8164 151.418 26.8516 151.418 26.8984C151.559 27.0156 151.641 27.1211 151.664 27.2148C151.711 27.3086 151.77 27.4258 151.84 27.5664C151.91 27.6836 151.98 27.8359 152.051 28.0234C152.145 28.1875 152.215 28.3516 152.262 28.5156C152.332 28.6797 152.438 28.8438 152.578 29.0078C152.531 29.2422 152.555 29.418 152.648 29.5352C152.742 29.6523 152.836 29.7695 152.93 29.8867C153.047 29.9102 153.117 29.8867 153.141 29.8164C153.188 29.7227 153.246 29.6055 153.316 29.4648C153.41 29.3008 153.48 29.0664 153.527 28.7617C153.574 28.4336 153.68 28.1758 153.844 27.9883C153.797 27.7305 153.832 27.543 153.949 27.4258C154.066 27.2852 154.113 27.0859 154.09 26.8281C154.207 26.7812 154.277 26.7227 154.301 26.6523C154.324 26.5586 154.371 26.4883 154.441 26.4414C154.395 26.2539 154.43 26.0898 154.547 25.9492C154.664 25.8086 154.746 25.6211 154.793 25.3867C154.84 25.1289 154.887 24.9414 154.934 24.8242C154.98 24.707 155.016 24.6133 155.039 24.543C155.086 24.4492 155.133 24.3555 155.18 24.2617C155.227 24.1445 155.25 24.0391 155.25 23.9453C155.273 23.8516 155.332 23.7344 155.426 23.5938C155.52 23.4531 155.566 23.3242 155.566 23.207C155.59 23.0664 155.637 22.9141 155.707 22.75C155.801 22.5625 155.836 22.457 155.812 22.4336C155.812 22.3867 155.812 22.3516 155.812 22.3281C155.953 22.1641 156.035 22.0117 156.059 21.8711C156.105 21.7305 156.199 21.6133 156.34 21.5195C156.387 21.4023 156.41 21.2734 156.41 21.1328C156.434 20.9688 156.469 20.8281 156.516 20.7109C156.773 20.3594 156.902 20.1719 156.902 20.1484C156.902 20.1016 156.961 19.9727 157.078 19.7617C157.219 19.5273 157.359 19.293 157.5 19.0586C157.664 18.8242 157.805 18.5781 157.922 18.3203C158.039 18.2969 158.145 18.2383 158.238 18.1445C158.332 18.0508 158.461 17.9336 158.625 17.793C158.812 17.6289 159.023 17.6055 159.258 17.7227C159.469 17.9336 159.562 18.0742 159.539 18.1445C159.516 18.1914 159.504 18.25 159.504 18.3203C159.621 18.4844 159.562 18.8477 159.328 19.4102C159.117 19.9492 159.012 20.2656 159.012 20.3594V20.6055C159.012 20.9805 158.812 21.3672 158.414 21.7656C158.32 22.0938 158.262 22.375 158.238 22.6094C158.145 23.125 158.016 23.5 157.852 23.7344C157.805 23.9219 157.758 24.0273 157.711 24.0508C157.688 24.0742 157.664 24.1211 157.641 24.1914C157.641 24.2383 157.641 24.3086 157.641 24.4023C157.664 24.4961 157.629 24.6016 157.535 24.7188C157.465 24.8359 157.418 24.9531 157.395 25.0703C157.395 25.1641 157.371 25.2578 157.324 25.3516C157.277 25.4453 157.242 25.5391 157.219 25.6328C157.219 25.7031 157.195 25.7852 157.148 25.8789C157.031 25.9961 156.961 26.125 156.938 26.2656C156.914 26.3828 156.867 26.5586 156.797 26.793C156.727 27.0039 156.656 27.168 156.586 27.2852C156.539 27.3789 156.527 27.4961 156.551 27.6367C156.199 28.0352 156.023 28.3984 156.023 28.7266C156.023 29.0547 155.988 29.2773 155.918 29.3945C155.871 29.5117 155.812 29.6406 155.742 29.7812C155.695 29.8984 155.648 30.0625 155.602 30.2734C155.555 30.4844 155.473 30.707 155.355 30.9414C155.262 31.1758 155.215 31.3633 155.215 31.5039C155.238 31.6211 155.238 31.75 155.215 31.8906C155.051 32.1719 154.969 32.3594 154.969 32.4531C154.992 32.5234 154.98 32.6172 154.934 32.7344C154.91 32.8281 154.887 32.9453 154.863 33.0859C154.863 33.3203 154.781 33.543 154.617 33.7539C154.453 33.9414 154.324 34.1523 154.23 34.3867C154.16 34.6445 154.09 34.832 154.02 34.9492C153.738 35.5586 153.574 36.0977 153.527 36.5664C153.434 36.6133 153.375 36.6836 153.352 36.7773C153.328 36.8711 153.258 36.9414 153.141 36.9883C153.141 37.1758 153.094 37.3281 153 37.4453C152.93 37.5625 152.859 37.668 152.789 37.7617C152.719 37.8789 152.672 37.9727 152.648 38.043C152.625 38.1367 152.59 38.207 152.543 38.2539C152.496 38.3242 152.449 38.3828 152.402 38.4297C152.355 38.4766 152.309 38.5352 152.262 38.6055C152.238 38.6992 152.238 38.8047 152.262 38.9219C152.285 39.1562 152.027 39.543 151.488 40.082C151.559 40.1758 151.535 40.3047 151.418 40.4688C151.301 40.9141 151.043 41.2188 150.645 41.3828C150.598 41.7109 150.469 41.957 150.258 42.1211C150.047 42.2852 149.883 42.5078 149.766 42.7891C149.625 42.8828 149.531 42.9883 149.484 43.1055C149.461 43.2461 149.391 43.3867 149.273 43.5273C149.156 43.5273 149.051 43.5508 148.957 43.5977C148.887 43.668 148.781 43.6914 148.641 43.668C148.594 43.832 148.512 43.9375 148.395 43.9844C148.277 44.0547 148.172 44.1484 148.078 44.2656C147.867 44.2188 147.703 44.2188 147.586 44.2656C147.469 44.3359 147.316 44.3711 147.129 44.3711C146.965 44.418 146.777 44.5234 146.566 44.6875C146.379 44.875 146.133 44.9805 145.828 45.0039L145.055 44.9336ZM170.789 21.0977C170.648 21.6133 170.613 22.0234 170.684 22.3281C170.66 22.6562 170.602 22.8555 170.508 22.9258C170.438 22.9961 170.344 23.0898 170.227 23.207C170.227 23.3008 170.227 23.4062 170.227 23.5234C170.25 23.6172 170.227 23.6875 170.156 23.7344C169.711 23.7109 169.266 23.6992 168.82 23.6992C168.398 23.6758 168.035 23.7461 167.73 23.9102C167.613 23.9336 167.531 23.9336 167.484 23.9102C167.438 23.8633 167.379 23.8281 167.309 23.8047C167.191 23.8516 167.039 23.9336 166.852 24.0508C166.688 24.168 166.523 24.1914 166.359 24.1211C166.195 24.0508 166.02 24.0391 165.832 24.0859C165.152 24.3203 164.719 24.5547 164.531 24.7891C164.555 25.0469 164.555 25.3047 164.531 25.5625C164.508 25.7969 164.52 26.0195 164.566 26.2305L164.637 26.6875C164.66 26.7812 164.648 26.8633 164.602 26.9336C164.578 27.0039 164.566 27.0977 164.566 27.2148C164.566 27.3086 164.59 27.4258 164.637 27.5664C164.707 27.6836 164.695 27.8008 164.602 27.918C164.648 28.0352 164.695 28.1523 164.742 28.2695C164.789 28.3867 164.789 28.5391 164.742 28.7266C164.766 28.8438 164.801 28.9375 164.848 29.0078C164.895 29.0547 164.93 29.1367 164.953 29.2539C165 29.3711 165.012 29.5234 164.988 29.7109C164.988 29.875 165 30.0156 165.023 30.1328C165.07 30.25 165.105 30.3906 165.129 30.5547C165.176 30.6953 165.293 30.8828 165.48 31.1172C165.668 31.3516 165.727 31.5391 165.656 31.6797C165.773 31.7969 165.867 31.9141 165.938 32.0312C166.031 32.1484 166.137 32.2539 166.254 32.3477C166.465 32.3711 166.652 32.4297 166.816 32.5234C167.004 32.6172 167.227 32.6641 167.484 32.6641C167.766 32.6641 168.082 32.5586 168.434 32.3477C168.809 32.1133 169.055 31.9727 169.172 31.9258C169.242 31.8789 169.277 31.7969 169.277 31.6797C169.301 31.5391 169.348 31.4453 169.418 31.3984C169.488 31.3281 169.547 31.293 169.594 31.293C169.664 31.2695 169.746 31.2344 169.84 31.1875C169.957 31.1172 170.062 31.0469 170.156 30.9766C170.25 30.8828 170.379 30.7891 170.543 30.6953C170.707 30.6016 170.93 30.6602 171.211 30.8711C171.281 31.1523 171.281 31.3516 171.211 31.4688C171.141 31.5859 171.07 31.7031 171 31.8203C170.93 31.9375 170.918 32.0195 170.965 32.0664C171.012 32.0898 171.023 32.1602 171 32.2773C170.859 32.418 170.789 32.5703 170.789 32.7344C170.648 32.7812 170.543 32.875 170.473 33.0156C170.402 33.1328 170.297 33.2383 170.156 33.332C170.016 33.4023 169.875 33.4492 169.734 33.4727C169.617 33.4727 169.477 33.5195 169.312 33.6133C169.172 33.6836 169.055 33.7891 168.961 33.9297C168.867 34.0469 168.715 34.1641 168.504 34.2812C168.387 34.2578 168.223 34.2461 168.012 34.2461C167.613 34.4805 167.191 34.5625 166.746 34.4922C166.324 34.4453 165.867 34.3984 165.375 34.3516C165 33.9766 164.578 33.707 164.109 33.543C163.922 33.0742 163.547 32.7695 162.984 32.6289C162.984 32.4883 162.926 32.3945 162.809 32.3477C162.715 32.3008 162.668 32.1836 162.668 31.9961C162.551 31.9727 162.469 31.9141 162.422 31.8203C162.398 31.7266 162.328 31.6562 162.211 31.6094C162.188 31.5391 162.152 31.4922 162.105 31.4688C162.082 31.4219 162.082 31.3398 162.105 31.2227C161.988 31.1758 161.895 31.1055 161.824 31.0117C161.777 30.8945 161.707 30.7773 161.613 30.6602C161.449 30.332 161.344 30.1094 161.297 29.9922C161.273 29.875 161.203 29.6758 161.086 29.3945C160.969 29.1133 160.922 28.7969 160.945 28.4453L160.664 27.8477C160.711 27.7305 160.711 27.6133 160.664 27.4961C160.641 27.3555 160.629 27.2148 160.629 27.0742L160.699 26.5469C160.723 26.2891 160.723 26.0195 160.699 25.7383C160.676 25.4336 160.688 25.1641 160.734 24.9297L160.84 24.5078C160.863 24.4141 160.863 24.332 160.84 24.2617C160.84 24.168 160.863 24.0391 160.91 23.875C160.98 23.6875 161.062 23.4766 161.156 23.2422C161.25 23.0078 161.297 22.8438 161.297 22.75C161.32 22.6562 161.355 22.5391 161.402 22.3984C161.449 22.2578 161.508 22.1289 161.578 22.0117C161.648 21.8945 161.707 21.7773 161.754 21.6602C161.824 21.5195 161.859 21.4023 161.859 21.3086C161.859 21.1914 161.906 21.0859 162 20.9922C162.117 20.875 162.199 20.7812 162.246 20.7109C162.293 20.6406 162.34 20.5703 162.387 20.5C162.457 20.4297 162.516 20.3594 162.562 20.2891C162.609 20.0781 162.703 19.9141 162.844 19.7969C163.008 19.6562 163.078 19.4922 163.055 19.3047C163.172 19.3047 163.242 19.2578 163.266 19.1641C163.289 19.0703 163.383 18.9766 163.547 18.8828C163.711 18.7656 163.816 18.6836 163.863 18.6367C163.91 18.5898 164.039 18.4961 164.25 18.3555C164.484 18.2148 164.66 18.0039 164.777 17.7227C164.895 17.8164 164.965 17.8516 164.988 17.8281C165.035 17.7812 165.117 17.7227 165.234 17.6523C165.352 17.582 165.445 17.5469 165.516 17.5469C165.586 17.5469 165.68 17.5117 165.797 17.4414C165.938 17.3477 166.055 17.3125 166.148 17.3359C166.266 17.3594 166.371 17.3359 166.465 17.2656C166.793 17.1719 167.086 17.1484 167.344 17.1953C167.602 17.2188 167.859 17.1953 168.117 17.125C168.234 17.1719 168.316 17.2539 168.363 17.3711C168.434 17.4883 168.504 17.582 168.574 17.6523C168.668 17.7227 168.75 17.7695 168.82 17.793C168.891 17.8164 168.984 17.875 169.102 17.9688C169.219 18.0625 169.301 18.1328 169.348 18.1797C169.395 18.2031 169.441 18.2617 169.488 18.3555C169.535 18.4258 169.594 18.5078 169.664 18.6016C169.758 18.6719 169.84 18.7773 169.91 18.918C170.004 19.0586 170.086 19.2461 170.156 19.4805C170.227 19.7148 170.332 19.9375 170.473 20.1484C170.426 20.3359 170.438 20.4766 170.508 20.5703C170.531 20.6875 170.566 20.7812 170.613 20.8516C170.684 20.9219 170.742 21.0039 170.789 21.0977ZM166.887 22.6094L167.344 22.5039C167.531 22.457 167.719 22.4336 167.906 22.4336C168.117 22.4102 168.316 22.3633 168.504 22.293C168.551 21.7539 168.492 21.3203 168.328 20.9922C168.398 20.8281 168.375 20.6758 168.258 20.5352C168.141 20.3711 168.094 20.1836 168.117 19.9727C167.859 19.7148 167.707 19.5742 167.66 19.5508C167.66 19.4102 167.637 19.3047 167.59 19.2344C167.543 19.1641 167.496 19.082 167.449 18.9883C167.332 18.9414 167.215 18.918 167.098 18.918C166.98 18.8945 166.887 18.8477 166.816 18.7773C166.371 19.2227 165.867 19.4688 165.305 19.5156C165.328 19.8203 165.246 20.1016 165.059 20.3594C165.035 20.4531 165.023 20.5469 165.023 20.6406V20.8516C164.906 20.9453 164.848 21.0977 164.848 21.3086C164.871 21.4961 164.824 21.707 164.707 21.9414C164.59 22.1523 164.555 22.3633 164.602 22.5742C164.93 22.6211 165.234 22.6328 165.516 22.6094C165.797 22.5625 166.066 22.5391 166.324 22.5391L166.887 22.6094Z" fill="#40A837"/>
</svg>
