<svg width="33" height="33" viewBox="0 0 33 33" fill="none" xmlns="http://www.w3.org/2000/svg">
<path d="M2.0625 16.5C2.0625 12.6709 3.58359 8.9987 6.29115 6.29115C8.9987 3.58359 12.6709 2.0625 16.5 2.0625C20.3291 2.0625 24.0013 3.58359 26.7089 6.29115C29.4164 8.9987 30.9375 12.6709 30.9375 16.5V18.5625H23.7188C23.4452 18.5625 23.1829 18.6711 22.9895 18.8645C22.7961 19.0579 22.6875 19.3202 22.6875 19.5938V31.9688C22.6875 32.2423 22.7961 32.5046 22.9895 32.698C23.1829 32.8913 23.4452 33 23.7188 33H28.875C29.969 33 31.0182 32.5654 31.7918 31.7918C32.5654 31.0182 33 29.969 33 28.875V16.5C33 12.1239 31.2616 7.92709 28.1673 4.83274C25.0729 1.73839 20.8761 0 16.5 0C12.1239 0 7.92709 1.73839 4.83274 4.83274C1.73839 7.92709 0 12.1239 0 16.5V28.875C0 29.969 0.434597 31.0182 1.20818 31.7918C1.98177 32.5654 3.03098 33 4.125 33H9.28125C9.55475 33 9.81706 32.8913 10.0105 32.698C10.2039 32.5046 10.3125 32.2423 10.3125 31.9688V19.5938C10.3125 19.3202 10.2039 19.0579 10.0105 18.8645C9.81706 18.6711 9.55475 18.5625 9.28125 18.5625H2.0625V16.5Z" fill="white"/>
</svg>
