<svg width="353" height="91" viewBox="0 0 353 91" fill="none" xmlns="http://www.w3.org/2000/svg">
<path d="M45.6094 29.5469V40.5156H9.98438V29.5469H45.6094ZM14.1562 1.75V70H0.09375V1.75H14.1562ZM55.6406 1.75V70H41.625V1.75H55.6406ZM97.0312 57.8594V19.2812H110.531V70H97.8281L97.0312 57.8594ZM98.5312 47.4531L102.516 47.3594C102.516 50.7344 102.125 53.875 101.344 56.7812C100.562 59.6562 99.3906 62.1562 97.8281 64.2812C96.2656 66.375 94.2969 68.0156 91.9219 69.2031C89.5469 70.3594 86.75 70.9375 83.5312 70.9375C81.0625 70.9375 78.7812 70.5938 76.6875 69.9062C74.625 69.1875 72.8438 68.0781 71.3438 66.5781C69.875 65.0469 68.7188 63.0938 67.875 60.7188C67.0625 58.3125 66.6562 55.4219 66.6562 52.0469V19.2812H80.1562V52.1406C80.1562 53.6406 80.3281 54.9062 80.6719 55.9375C81.0469 56.9688 81.5625 57.8125 82.2188 58.4688C82.875 59.125 83.6406 59.5938 84.5156 59.875C85.4219 60.1562 86.4219 60.2969 87.5156 60.2969C90.2969 60.2969 92.4844 59.7344 94.0781 58.6094C95.7031 57.4844 96.8438 55.9531 97.5 54.0156C98.1875 52.0469 98.5312 49.8594 98.5312 47.4531ZM134.062 30.1094V70H120.562V19.2812H133.219L134.062 30.1094ZM132.094 42.8594H128.438C128.438 39.1094 128.922 35.7344 129.891 32.7344C130.859 29.7031 132.219 27.125 133.969 25C135.719 22.8438 137.797 21.2031 140.203 20.0781C142.641 18.9219 145.359 18.3438 148.359 18.3438C150.734 18.3438 152.906 18.6875 154.875 19.375C156.844 20.0625 158.531 21.1562 159.938 22.6562C161.375 24.1562 162.469 26.1406 163.219 28.6094C164 31.0781 164.391 34.0938 164.391 37.6562V70H150.797V37.6094C150.797 35.3594 150.484 33.6094 149.859 32.3594C149.234 31.1094 148.312 30.2344 147.094 29.7344C145.906 29.2031 144.438 28.9375 142.688 28.9375C140.875 28.9375 139.297 29.2969 137.953 30.0156C136.641 30.7344 135.547 31.7344 134.672 33.0156C133.828 34.2656 133.188 35.7344 132.75 37.4219C132.312 39.1094 132.094 40.9219 132.094 42.8594ZM206.766 19.2812H219V68.3125C219 72.9375 217.969 76.8594 215.906 80.0781C213.875 83.3281 211.031 85.7812 207.375 87.4375C203.719 89.125 199.469 89.9688 194.625 89.9688C192.5 89.9688 190.25 89.6875 187.875 89.125C185.531 88.5625 183.281 87.6875 181.125 86.5C179 85.3125 177.219 83.8125 175.781 82L181.734 74.0312C183.297 75.8438 185.109 77.25 187.172 78.25C189.234 79.2812 191.516 79.7969 194.016 79.7969C196.453 79.7969 198.516 79.3438 200.203 78.4375C201.891 77.5625 203.188 76.2656 204.094 74.5469C205 72.8594 205.453 70.8125 205.453 68.4062V31L206.766 19.2812ZM172.641 45.25V44.2656C172.641 40.3906 173.109 36.875 174.047 33.7188C175.016 30.5312 176.375 27.7969 178.125 25.5156C179.906 23.2344 182.062 21.4688 184.594 20.2188C187.125 18.9688 189.984 18.3438 193.172 18.3438C196.547 18.3438 199.375 18.9688 201.656 20.2188C203.938 21.4688 205.812 23.25 207.281 25.5625C208.75 27.8438 209.891 30.5469 210.703 33.6719C211.547 36.7656 212.203 40.1562 212.672 43.8438V46C212.203 49.5312 211.5 52.8125 210.562 55.8438C209.625 58.875 208.391 61.5312 206.859 63.8125C205.328 66.0625 203.422 67.8125 201.141 69.0625C198.891 70.3125 196.203 70.9375 193.078 70.9375C189.953 70.9375 187.125 70.2969 184.594 69.0156C182.094 67.7344 179.953 65.9375 178.172 63.625C176.391 61.3125 175.016 58.5938 174.047 55.4688C173.109 52.3438 172.641 48.9375 172.641 45.25ZM186.141 44.2656V45.25C186.141 47.3438 186.344 49.2969 186.75 51.1094C187.156 52.9219 187.781 54.5312 188.625 55.9375C189.5 57.3125 190.578 58.3906 191.859 59.1719C193.172 59.9219 194.719 60.2969 196.5 60.2969C198.969 60.2969 200.984 59.7812 202.547 58.75C204.109 57.6875 205.281 56.2344 206.062 54.3906C206.844 52.5469 207.297 50.4219 207.422 48.0156V41.875C207.359 39.9062 207.094 38.1406 206.625 36.5781C206.156 34.9844 205.5 33.625 204.656 32.5C203.812 31.375 202.719 30.5 201.375 29.875C200.031 29.25 198.438 28.9375 196.594 28.9375C194.812 28.9375 193.266 29.3438 191.953 30.1562C190.672 30.9375 189.594 32.0156 188.719 33.3906C187.875 34.7656 187.234 36.3906 186.797 38.2656C186.359 40.1094 186.141 42.1094 186.141 44.2656ZM243 30.3438V70H229.5V19.2812H242.203L243 30.3438ZM258.281 18.9531L258.047 31.4688C257.391 31.375 256.594 31.2969 255.656 31.2344C254.75 31.1406 253.922 31.0938 253.172 31.0938C251.266 31.0938 249.609 31.3438 248.203 31.8438C246.828 32.3125 245.672 33.0156 244.734 33.9531C243.828 34.8906 243.141 36.0312 242.672 37.375C242.234 38.7188 241.984 40.25 241.922 41.9688L239.203 41.125C239.203 37.8438 239.531 34.8281 240.188 32.0781C240.844 29.2969 241.797 26.875 243.047 24.8125C244.328 22.75 245.891 21.1562 247.734 20.0312C249.578 18.9062 251.688 18.3438 254.062 18.3438C254.812 18.3438 255.578 18.4062 256.359 18.5312C257.141 18.625 257.781 18.7656 258.281 18.9531ZM280.547 64.2812L294 19.2812H308.484L288.094 77.6406C287.656 78.9219 287.062 80.2969 286.312 81.7656C285.594 83.2344 284.609 84.625 283.359 85.9375C282.141 87.2812 280.594 88.375 278.719 89.2188C276.875 90.0625 274.609 90.4844 271.922 90.4844C270.641 90.4844 269.594 90.4062 268.781 90.25C267.969 90.0938 267 89.875 265.875 89.5938V79.7031C266.219 79.7031 266.578 79.7031 266.953 79.7031C267.328 79.7344 267.688 79.75 268.031 79.75C269.812 79.75 271.266 79.5469 272.391 79.1406C273.516 78.7344 274.422 78.1094 275.109 77.2656C275.797 76.4531 276.344 75.3906 276.75 74.0781L280.547 64.2812ZM274.922 19.2812L285.938 56.0312L287.859 70.3281L278.672 71.3125L260.438 19.2812H274.922ZM336.891 49.1406H324.938C324.969 46.3281 325.188 43.9062 325.594 41.875C326.031 39.8125 326.766 37.9531 327.797 36.2969C328.859 34.6406 330.266 33 332.016 31.375C333.484 30.0625 334.766 28.8125 335.859 27.625C336.953 26.4375 337.812 25.2188 338.438 23.9688C339.062 22.6875 339.375 21.2656 339.375 19.7031C339.375 17.8906 339.094 16.3906 338.531 15.2031C338 13.9844 337.188 13.0625 336.094 12.4375C335.031 11.8125 333.688 11.5 332.062 11.5C330.719 11.5 329.469 11.7969 328.312 12.3906C327.156 12.9531 326.203 13.8281 325.453 15.0156C324.734 16.2031 324.359 17.7656 324.328 19.7031H310.734C310.828 15.4219 311.812 11.8906 313.688 9.10938C315.594 6.29688 318.141 4.21875 321.328 2.875C324.516 1.5 328.094 0.8125 332.062 0.8125C336.438 0.8125 340.188 1.53125 343.312 2.96875C346.438 4.375 348.828 6.45312 350.484 9.20312C352.141 11.9219 352.969 15.2344 352.969 19.1406C352.969 21.8594 352.438 24.2812 351.375 26.4062C350.312 28.5 348.922 30.4531 347.203 32.2656C345.484 34.0781 343.594 35.9531 341.531 37.8906C339.75 39.4844 338.531 41.1562 337.875 42.9062C337.25 44.6562 336.922 46.7344 336.891 49.1406ZM323.531 63.625C323.531 61.625 324.219 59.9688 325.594 58.6562C326.969 57.3125 328.812 56.6406 331.125 56.6406C333.406 56.6406 335.234 57.3125 336.609 58.6562C338.016 59.9688 338.719 61.625 338.719 63.625C338.719 65.5625 338.016 67.2031 336.609 68.5469C335.234 69.8906 333.406 70.5625 331.125 70.5625C328.812 70.5625 326.969 69.8906 325.594 68.5469C324.219 67.2031 323.531 65.5625 323.531 63.625Z" fill="#40A837"/>
</svg>
