<svg width="28" height="28" viewBox="0 0 28 28" fill="none" xmlns="http://www.w3.org/2000/svg">
<path fill-rule="evenodd" clip-rule="evenodd" d="M10.4006 9.7566H15.6002V12.3466C16.3492 10.857 18.27 9.5186 21.1554 9.5186C26.6868 9.5186 28 12.4838 28 17.9242V28H22.4V19.1632C22.4 16.065 21.651 14.3178 19.7442 14.3178C17.0996 14.3178 16.0006 16.2008 16.0006 19.1618V28H10.4006V9.7566V9.7566ZM0.798 27.762H6.398V9.5186H0.798V27.762V27.762ZM7.2002 3.57C7.20041 4.03939 7.10732 4.50413 6.92634 4.93722C6.74537 5.37031 6.48011 5.76312 6.146 6.0928C5.46896 6.76567 4.55253 7.14231 3.598 7.14C2.64515 7.13936 1.73084 6.76368 1.0528 6.0942C0.719896 5.7634 0.45554 5.37015 0.274881 4.937C0.0942221 4.50386 0.000810785 4.03931 0 3.57C0 2.6222 0.378 1.715 1.0542 1.0458C1.73164 0.375422 2.64634 -0.000418895 3.5994 3.5037e-07C4.5542 3.5037e-07 5.4698 0.3766 6.146 1.0458C6.8208 1.715 7.2002 2.6222 7.2002 3.57Z" fill="white"/>
</svg>
