<svg width="1280" height="832" viewBox="0 0 1280 832" fill="none" xmlns="http://www.w3.org/2000/svg">
<g clip-path="url(#clip0_1_29)">
<rect width="1280" height="832" fill="white"/>
<path d="M1552.11 213.255C1650.72 327.367 1741.75 395.217 1839.28 503.932C1937.89 612.647 2044.09 762.997 1988.83 860.918C1932.48 959.609 1715.74 1005.1 1527.19 1011.27C1339.72 1017.44 1181.5 984.282 1074.22 924.142C966.938 864.773 909.504 779.189 808.724 693.605C707.944 607.25 562.734 520.895 556.232 435.311C549.73 349.727 680.853 264.914 817.393 155.428C953.934 45.9421 1093.73 -88.2167 1218.35 -75.1092C1342.97 -61.2308 1452.42 99.143 1552.11 213.255Z" fill="#40A837"/>
<circle cx="274" cy="616" r="24" fill="white"/>
</g>
<defs>
<clipPath id="clip0_1_29">
<rect width="1280" height="832" fill="white"/>
</clipPath>
</defs>
</svg>
