<svg width="28" height="27" viewBox="0 0 28 27" fill="none" xmlns="http://www.w3.org/2000/svg">
<path d="M28 3.19823C27.2203 4.57499 26.2637 5.74862 25.1302 6.71911C25.1414 6.97939 25.147 7.27357 25.147 7.60165C25.147 9.42457 24.9231 11.2497 24.4754 13.077C24.0276 14.9043 23.3436 16.6534 22.4234 18.3243C21.5033 19.9951 20.4072 21.4753 19.1351 22.7649C17.8631 24.0545 16.3341 25.0827 14.548 25.8496C12.762 26.6165 10.8478 27 8.80557 27C5.61827 27 2.68308 25.9786 0 23.9357C0.476215 23.9986 0.932945 24.0301 1.37019 24.0301C4.03292 24.0301 6.41117 23.0565 8.50493 21.1093C7.26342 21.0823 6.15154 20.6286 5.16932 19.7482C4.18709 18.8679 3.51115 17.743 3.14149 16.3736C3.50687 16.4562 3.8675 16.4975 4.22336 16.4975C4.73561 16.4975 5.23965 16.4182 5.73548 16.2596C4.41055 15.9446 3.31141 15.1612 2.43806 13.9095C1.56473 12.6578 1.12807 11.2131 1.12807 9.57538V9.49098C1.94132 10.0255 2.80878 10.3098 3.73044 10.344C2.94556 9.72282 2.32327 8.91283 1.86357 7.91399C1.40384 6.91515 1.17397 5.83424 1.17397 4.67124C1.17397 3.44467 1.43289 2.30249 1.95073 1.24473C3.39156 3.34365 5.13744 5.02118 7.18835 6.2773C9.23929 7.53345 11.4396 8.23108 13.7892 8.37018C13.6889 7.87441 13.6387 7.35704 13.6386 6.81809C13.6386 4.93626 14.1996 3.32946 15.3215 1.99767C16.4435 0.665891 17.7972 0 19.3824 0C21.0421 0 22.4401 0.717398 23.5764 2.15219C24.8746 1.84693 26.0902 1.29479 27.2231 0.495773C26.7866 2.12639 25.9456 3.3843 24.7 4.26951C25.8448 4.10801 26.9448 3.75092 28 3.19823H28Z" fill="white"/>
</svg>
