<svg width="14" height="22" viewBox="0 0 14 22" fill="none" xmlns="http://www.w3.org/2000/svg">
<path d="M12.3334 0.333313H1.66671C1.31309 0.333313 0.973948 0.473789 0.723899 0.723837C0.473851 0.973886 0.333374 1.31302 0.333374 1.66665V20.2866C0.333163 20.5509 0.411486 20.8093 0.558397 21.0289C0.705308 21.2486 0.914182 21.4197 1.1585 21.5204C1.40281 21.6211 1.67155 21.647 1.93059 21.5947C2.18963 21.5424 2.42728 21.4143 2.61337 21.2266L6.97338 16.88L11.3934 21.28C11.5802 21.4657 11.8179 21.5919 12.0764 21.6427C12.335 21.6935 12.6027 21.6665 12.8459 21.5652C13.0892 21.464 13.2969 21.2929 13.443 21.0736C13.5891 20.8544 13.6669 20.5968 13.6667 20.3333V1.66665C13.6667 1.31302 13.5262 0.973886 13.2762 0.723837C13.0261 0.473789 12.687 0.333313 12.3334 0.333313Z" fill="#414B5A"/>
</svg>
