<svg width="26" height="25" viewBox="0 0 26 25" fill="none" xmlns="http://www.w3.org/2000/svg">
<path d="M16.75 22.5C16.06 22.5 15.5 21.9412 15.5 21.25V13.75C15.5 13.0588 16.06 12.5 16.75 12.5C17.44 12.5 18 13.0588 18 13.75V21.25C18 21.9412 17.44 22.5 16.75 22.5ZM9.25 22.5C8.56 22.5 8 21.9412 8 21.25V13.75C8 13.0588 8.56 12.5 9.25 12.5C9.94 12.5 10.5 13.0588 10.5 13.75V21.25C10.5 21.9412 9.94 22.5 9.25 22.5ZM13 25C12.31 25 11.75 24.4412 11.75 23.75V16.25C11.75 15.5588 12.31 15 13 15C13.69 15 14.25 15.5588 14.25 16.25V23.75C14.25 24.4412 13.69 25 13 25ZM5.5 17.5C2.7425 17.5 0.5 15.2575 0.5 12.5C0.5 10.1737 2.09625 8.21375 4.25125 7.6575L4.25 7.5C4.25 3.36375 7.61375 0 11.75 0C14.9837 0 17.78 2.04875 18.8125 5.01875C22.4825 4.71375 25.5 7.66 25.5 11.25C25.5 14.0512 23.6162 16.5287 20.9175 17.2738C20.2487 17.4563 19.5637 17.0662 19.38 16.4025C19.1962 15.7375 19.5862 15.0487 20.2525 14.865C21.87 14.4175 23 12.9312 23 11.25C23 9.1825 21.3175 7.5 19.25 7.5C18.9475 7.5 18.6262 7.55125 18.2362 7.6625L16.8937 8.045L16.6625 6.6675C16.255 4.2525 14.19 2.5 11.75 2.5C8.9925 2.5 6.75 4.7425 6.75 7.5C6.75 7.84 6.78375 8.18125 6.8525 8.51L7.1625 10.0125L5.385 9.9925C4.12125 10 3 11.1213 3 12.5C3 13.8787 4.12125 15 5.5 15C6.19 15 6.75 15.5588 6.75 16.25C6.75 16.9412 6.19 17.5 5.5 17.5Z" fill="#8DBBFF"/>
</svg>
