<svg width="24" height="20" viewBox="0 0 24 20" fill="none" xmlns="http://www.w3.org/2000/svg">
<path d="M15.75 7.5L16.935 4.92L19.5 3.75L16.935 2.58L15.75 0L14.61 2.58L12 3.75L14.61 4.92L15.75 7.5Z" fill="#414B5A"/>
<path d="M3 10.5L3.6 8.1L6 7.5L3.6 6.9L3 4.5L2.4 6.9L0 7.5L2.4 8.1L3 10.5Z" fill="#414B5A"/>
<path d="M21.75 4.5C20.145 4.5 18.99 6.18 19.725 7.71L15.21 12.225C14.43 11.85 13.725 12.015 13.275 12.225L11.76 10.71C11.91 10.425 12 10.095 12 9.75C12 8.505 10.995 7.5 9.75 7.5C8.505 7.5 7.5 8.505 7.5 9.75C7.5 10.095 7.59 10.425 7.725 10.71L3.21 15.225C2.925 15.09 2.595 15 2.25 15C1.005 15 0 16.005 0 17.25C0 18.495 1.005 19.5 2.25 19.5C3.495 19.5 4.5 18.495 4.5 17.25C4.5 16.905 4.41 16.575 4.275 16.29L8.79 11.775C9.57 12.15 10.275 11.985 10.725 11.775L12.24 13.29C12.09 13.575 12 13.905 12 14.25C12 15.495 13.005 16.5 14.25 16.5C15.495 16.5 16.5 15.495 16.5 14.25C16.5 13.905 16.41 13.575 16.275 13.29L20.79 8.775C22.335 9.525 24 8.34 24 6.75C24 5.505 22.995 4.5 21.75 4.5Z" fill="#414B5A"/>
</svg>
