<svg width="64" height="59" viewBox="0 0 64 59" fill="none" xmlns="http://www.w3.org/2000/svg">
<path d="M36.5493 19.9325C40.5814 19.9325 43.8591 23.1765 43.8591 27.1672C43.8591 28.2264 43.5784 29.2103 43.1632 30.1161C42.1281 30.1768 41.058 30.3302 39.8942 30.6601C38.3709 26.7447 35.2042 23.6714 31.2189 22.2534C32.5522 20.8354 34.4411 19.9325 36.5493 19.9325Z" fill="#EFFF8D"/>
<path d="M39.4732 4.01605L36.5493 12.6977L33.6253 4.01605C33.0873 2.41573 33.9586 0.690971 35.5727 0.158495C37.1896 -0.376875 38.9352 0.488398 39.4732 2.08583C39.6925 2.73985 39.6779 3.41123 39.4732 4.01605Z" fill="#EFFF8D"/>
<path d="M55.1572 12.8424L46.8854 16.9373L51.0228 8.75046C51.7859 7.24274 53.6368 6.63503 55.1572 7.38454C56.6806 8.13985 57.2946 9.97168 56.5373 11.4794C56.2244 12.0929 55.7362 12.5559 55.1572 12.8424Z" fill="#EFFF8D"/>
<path d="M59.9408 30.0611L51.169 27.1672L59.9408 24.2733C61.5577 23.7379 63.3004 24.6032 63.8413 26.2035C64.3793 27.801 63.5051 29.5257 61.8881 30.0611C61.2302 30.2781 60.5519 30.2608 59.9408 30.0611Z" fill="#EFFF8D"/>
<path fill-rule="evenodd" clip-rule="evenodd" d="M49.052 31.0508C49.4585 29.8238 49.707 28.5302 49.707 27.1672C49.707 19.9874 43.8036 14.1447 36.5493 14.1447C32.6312 14.1447 29.1312 15.8636 26.7336 18.5665L26.3155 18.4855C21.1225 18.4855 16.4647 20.7427 13.2484 24.3051C12.5466 24.0736 11.8683 24.0563 11.2104 24.2733C9.59345 24.8087 8.71919 26.5334 9.2572 28.1309C9.42386 28.6141 9.71918 28.9961 10.0671 29.3202C9.23965 31.3373 8.77182 33.5395 8.77182 35.8489L8.77767 36.2135C3.73387 37.5013 0 42.0389 0 47.4244C0 53.8084 5.24847 59 11.6958 59H43.8591C51.9204 59 58.4788 52.509 58.4788 44.5305C58.4788 38.3694 54.549 33.1315 49.052 31.0508ZM36.5493 19.9325C40.5814 19.9325 43.8591 23.1765 43.8591 27.1672C43.8591 28.2264 43.5784 29.2103 43.1632 30.1161C42.1281 30.1768 41.058 30.3302 39.8942 30.6601C38.3709 26.7447 35.2042 23.6714 31.2189 22.2534C32.5522 20.8354 34.4411 19.9325 36.5493 19.9325ZM43.8591 53.2122H11.6958C8.46773 53.2122 5.84788 50.6164 5.84788 47.4244C5.84788 44.2325 8.46773 41.6367 11.4268 41.6193L15.5846 41.6656L14.8595 38.1871C14.6986 37.426 14.6197 36.636 14.6197 35.8489C14.6197 29.4649 19.8682 24.2733 26.3155 24.2733L26.5172 24.2328C32.0844 24.3919 36.7364 28.3016 37.7656 33.6958L37.8767 34.2341C38.2364 35.4958 39.3884 36.2772 40.6428 36.2945L41.4878 36.228C42.4001 35.9675 43.1515 35.8489 43.8591 35.8489C48.6953 35.8489 52.6309 39.744 52.6309 44.5305C52.6309 49.317 48.6953 53.2122 43.8591 53.2122Z" fill="#8DBBFF"/>
<path d="M22.0758 8.75046L26.2131 16.9373L17.9413 12.8424C16.4179 12.0871 15.801 10.2553 16.5612 8.75046C17.3243 7.24274 19.1781 6.63503 20.6957 7.38454C21.3184 7.69419 21.7863 8.17747 22.0758 8.75046Z" fill="#EFFF8D"/>
</svg>
